<svg version="1.1" xmlns="http://www.w3.org/2000/svg" style="display: block;" viewBox="0 0 2048 2048" width="512" height="512">
<path transform="translate(0,0)" fill="rgb(42,55,124)" d="M 1010.67 195.649 C 1028.89 211.395 1045.52 230.173 1062.75 247.094 L 1299.27 482.66 C 1336.09 518.949 1373.27 554.802 1409.3 591.898 L 1564.67 591.448 C 1635.48 590.686 1639.5 647.817 1639.47 698.707 L 1639.43 1057.02 L 1749.7 1057.01 C 1819.89 1056.91 1807.1 1044.4 1807.08 1117.81 L 1807.08 1349.11 C 1807.09 1443.2 1827.48 1431.17 1742.45 1431.13 L 1639.43 1431.11 L 1639.46 1731.73 C 1639.76 1830.22 1612.9 1829.3 1533.36 1829.16 L 1039.5 1829.12 L 367.962 1829.13 C 347.434 1829.14 315.912 1831.14 296.506 1828.98 C 226.148 1821.13 241.017 1724.02 241.052 1673.29 L 241.021 705.55 C 241.025 656.986 237.158 606.408 301.157 593.27 C 319.418 589.521 360.787 591.918 381.712 591.915 L 534.878 591.905 C 560.039 591.908 585.689 593.078 610.783 591.898 C 623.568 581.735 634.939 568.535 646.473 556.938 L 1010.67 195.649 z M 1371.25 574.565 C 1371.86 581.727 1367.01 589.865 1375.55 591.898 L 1387.47 591.898 C 1382.27 585.874 1376.93 580.141 1371.25 574.565 z"/>
<path transform="translate(0,0)" fill="rgb(91,186,153)" d="M 1496.81 1431.11 C 1534.44 1427.78 1585.16 1431.54 1624.22 1431.11 L 1624.31 1731.08 C 1624.68 1814.91 1612.31 1814.33 1527.13 1814.47 C 1514.86 1814.49 1501.28 1815.98 1489.15 1814.4 L 1478.25 1814.4 C 1498.76 1789.49 1496.95 1765.74 1496.89 1735.37 L 1496.81 1431.11 z"/>
<path transform="translate(0,0)" fill="rgb(152,221,202)" d="M 1496.81 1431.11 C 1514.04 1433.35 1541.5 1430.98 1559.95 1431.11 L 1560.01 1672.06 C 1559.96 1720.12 1557.83 1773.5 1511.1 1801.36 C 1504.66 1805.2 1493.95 1808.82 1489.15 1814.4 L 1478.25 1814.4 C 1498.76 1789.49 1496.95 1765.74 1496.89 1735.37 L 1496.81 1431.11 z"/>
<path transform="translate(0,0)" fill="rgb(152,221,202)" d="M 1010.67 356.527 C 1039.68 381.747 1065.89 410.913 1093.12 438.072 L 1247.51 591.898 L 1010.67 591.898 L 771.618 591.898 C 788.743 577.579 803.498 560.12 819.359 544.419 L 934.056 430.492 C 958.895 405.677 983.595 378.902 1010.67 356.527 z"/>
<path transform="translate(0,0)" fill="rgb(91,186,153)" d="M 1473.22 606.99 C 1488.41 605.214 1505.61 606.894 1520.97 606.99 C 1607.84 606.962 1624.3 609.858 1624.28 702.202 L 1624.22 1057.02 L 1534.34 1057.09 C 1522.49 1057.11 1508.31 1058.87 1496.81 1057.02 L 1496.86 708.053 C 1496.88 672.733 1503.21 632.239 1473.22 606.99 z"/>
<path transform="translate(0,0)" fill="rgb(152,221,202)" d="M 1473.22 606.99 C 1488.41 605.214 1505.61 606.894 1520.97 606.99 C 1563.68 616.566 1559.96 680.039 1559.97 710.857 L 1559.95 1057.02 C 1539.22 1056.92 1517.4 1055.11 1496.81 1057.02 L 1496.86 708.053 C 1496.88 672.733 1503.21 632.239 1473.22 606.99 z"/>
<path transform="translate(0,0)" fill="rgb(252,216,80)" d="M 634.142 591.898 C 664.37 558.988 696.726 528.211 728.425 496.738 L 968.913 258.348 C 982.776 244.658 995.641 228.999 1010.67 216.628 C 1023.34 227.754 1034.97 240.404 1046.93 252.305 L 1113.92 318.922 C 1199.56 404.161 1283.85 491.146 1371.25 574.565 C 1371.86 581.727 1367.01 589.865 1375.55 591.898 C 1340.33 591.891 1305 592.66 1269.79 591.898 C 1242.31 566.907 1216.78 539.417 1190.53 513.13 L 1097.4 420.856 C 1068.52 391.933 1040.13 362.455 1010.67 334.128 C 978.654 360.646 942.035 401.126 912.451 431.003 L 751.54 591.898 L 634.142 591.898 z"/>
<path transform="translate(0,0)" fill="rgb(212,232,229)" d="M 310.666 606.99 C 337.011 605.671 363.717 606.973 390.103 606.979 L 1397.45 606.973 C 1430.67 606.882 1469.11 600.238 1479.63 642.543 C 1483.85 659.543 1481.41 711.804 1481.35 732.322 L 1429.5 732.322 L 256.102 732.322 C 257.492 682.784 244.443 615.93 310.666 606.99 z"/>
<path transform="translate(0,0)" fill="rgb(212,232,229)" d="M 256.102 1687.03 L 1481.35 1687.03 C 1481.27 1718.78 1489.44 1780.06 1466.32 1802.75 C 1447.18 1818.7 1425.53 1814.44 1402.05 1814.44 L 312.945 1814.55 C 240.091 1814.55 255.971 1736.52 256.102 1687.03 z"/>
<path transform="translate(0,0)" fill="rgb(200,212,242)" d="M 1360.63 1072.94 L 1792.18 1072.94 L 1792.18 1416.05 L 1759.5 1416.05 L 1403.5 1416.11 C 1336.7 1416.2 1327.97 1425.14 1328 1348.2 L 1327.99 1160.57 C 1327.97 1126.64 1316.37 1077.55 1360.63 1072.94 z"/>
<path transform="translate(0,0)" fill="rgb(42,55,124)" d="M 1458.35 1157.33 C 1566.6 1148.57 1575.28 1303.31 1478.25 1314.92 C 1365.89 1326.79 1356.95 1170.18 1458.35 1157.33 z"/>
<path transform="translate(0,0)" fill="rgb(152,221,202)" d="M 1458.35 1173.17 C 1541.5 1167.48 1557.38 1283.56 1478.25 1298.79 C 1395.06 1310.78 1370.52 1191.89 1458.35 1173.17 z"/>
<path transform="translate(0,0)" fill="rgb(152,221,202)" d="M 256.102 747.105 L 1481.35 747.105 L 1481.35 1057.02 L 1403.39 1056.94 C 1297.08 1056.89 1313.08 1082.31 1313.05 1170.11 L 1313.03 1358.48 C 1313.05 1429.34 1323.03 1431.21 1398.03 1431.18 L 1481.35 1431.11 L 1481.35 1503.5 L 1481.35 1671.96 L 256.102 1671.96 L 256.102 747.105 z"/>
<path transform="translate(0,0)" fill="rgb(42,55,124)" d="M 790.15 847.686 C 794.965 849.786 799.91 855.482 803.683 859.137 L 1120.16 1170.71 C 1132.66 1182.83 1150.94 1196.85 1160.12 1211.12 C 1143.08 1230.09 1120.77 1249.3 1102.3 1267.48 L 851.718 1515.54 C 833.881 1533.02 816.277 1552.9 796.746 1568.33 C 778.748 1573.69 696.109 1478.7 679.912 1462.34 L 524.057 1305.96 C 501.598 1283.38 442.82 1232.19 428.047 1208.64 C 451.661 1183.59 476.91 1159.89 501.141 1135.42 L 701.215 935.814 C 730.858 906.498 761.464 877.933 790.15 847.686 z"/>
<path transform="translate(0,0)" fill="rgb(249,164,46)" d="M 790.15 868.691 C 796.843 871.853 835.868 912.467 844.586 921.017 L 1048.66 1122.67 C 1078.31 1151.87 1112.48 1179.24 1139.19 1211.12 C 1061.5 1283.23 987.344 1359.56 912.084 1434.2 L 841.884 1503.56 C 826.609 1518.47 810.189 1532.76 796.746 1549.37 C 787.105 1556.9 756.91 1518.04 749.201 1510.21 L 529.119 1289.3 C 502.232 1262.4 474.624 1236.25 448.446 1208.64 C 482.661 1175.68 515.852 1141.72 549.47 1108.16 L 687.862 970.523 C 721.865 936.564 754.709 901.162 790.15 868.691 z"/>
<path transform="translate(0,0)" fill="rgb(252,216,80)" d="M 790.15 980.756 C 807.004 1001.67 826.869 1018.78 845.654 1037.81 C 903.281 1096.2 964.171 1151.43 1020.5 1211.12 C 998.036 1237.59 970.588 1261.01 945.97 1285.53 L 792.732 1437.46 L 790.437 1437.48 C 770.515 1420.89 752.139 1400.91 734.049 1382.3 L 661.262 1308.07 C 628.486 1274.95 591.645 1243.96 561.317 1208.64 C 569.785 1195.52 581.973 1184.64 593.073 1173.77 L 723.427 1045.87 C 745.216 1023.86 765.957 1000.2 790.15 980.756 z"/>
</svg>