<svg version="1.1" xmlns="http://www.w3.org/2000/svg" style="display: block;" viewBox="0 0 2048 2048" width="512" height="512">
<path transform="translate(0,0)" fill="rgb(0,0,0)" d="M 1479.84 301.328 C 1524.38 297.322 1567.41 319.853 1578.17 366.146 C 1583.75 390.131 1581.04 418.19 1581.04 442.783 L 1581.05 554.007 C 1638.16 560.845 1685.92 538.538 1737.02 589.923 C 1782.56 635.724 1772.01 697.602 1772.02 756.541 L 1772.09 1585.47 C 1772.11 1684.5 1721.74 1725.71 1625.84 1725.36 L 571.5 1725.27 L 449.134 1725.27 C 422.034 1725.29 390.41 1728.69 364.232 1722.19 C 310.432 1708.83 278.36 1658.5 277.066 1604.83 C 275.383 1535 277.043 1464.69 277.04 1394.83 L 276.996 698.257 C 277.088 533.664 392.291 555.602 516.882 554.007 C 517.487 430.748 594.736 449.514 696.554 432.3 L 1337.4 325.404 C 1384.86 317.56 1432.2 307.972 1479.84 301.328 z"/>
<path transform="translate(0,0)" fill="rgb(204,203,203)" d="M 1581.05 596.997 L 1628.05 596.93 C 1724.63 596.899 1729.73 638.256 1729.75 724.341 L 1729.7 802.028 C 1667.72 761.382 1651.35 769.695 1581.05 769.889 L 1581.05 596.997 z"/>
<path transform="translate(0,0)" fill="rgb(204,203,203)" d="M 395.696 596.997 L 516.882 596.997 L 516.882 769.889 L 442.5 769.889 C 410.238 770.014 378.731 772.699 351.847 751.529 C 290.598 703.3 315.644 604.767 395.696 596.997 z"/>
<path transform="translate(0,0)" fill="rgb(83,192,109)" d="M 1484.31 344.358 C 1543.28 336.978 1538.53 395.232 1538.54 432.717 L 1538.53 769.889 C 1516.56 769.932 1494.59 769.542 1472.63 769.889 L 1472.69 558.175 C 1472.68 488.882 1453.39 538.763 1411.22 505.298 C 1369.4 472.106 1402.39 421.543 1359.07 427.149 C 1329 431.04 1298.79 436.739 1268.85 441.667 L 719.96 530.264 C 711.779 531.408 703.605 532.499 695.395 533.416 C 695.513 597.706 688.628 625.79 619.886 638.263 L 619.886 769.889 L 560.022 769.889 L 560.005 607.878 C 560.004 586.599 554.418 525.356 565.51 507.803 C 577.085 489.486 607.865 489.906 626.69 486.933 L 1330.94 370.547 C 1382.07 362.26 1433.01 351.249 1484.31 344.358 z"/>
<path transform="translate(0,0)" fill="rgb(144,227,231)" d="M 1447.21 1100.49 L 1729.7 1100.49 L 1729.7 1390.36 L 1581.05 1390.36 L 1494.28 1390.43 C 1465.77 1390.5 1433.94 1393.44 1406.3 1386.11 C 1254.86 1345.91 1257.12 1104.31 1447.21 1100.49 z"/>
<path transform="translate(0,0)" fill="rgb(0,0,0)" d="M 1440.88 1157.32 C 1555.86 1144.02 1583.47 1314.32 1464.2 1335.85 C 1349.13 1351.23 1317.18 1177.81 1440.88 1157.32 z"/>
<path transform="translate(0,0)" fill="rgb(236,143,40)" d="M 1447.21 1200.32 C 1510.35 1198.96 1516.06 1281.07 1457.24 1292.9 C 1394.75 1295.81 1384.87 1208.67 1447.21 1200.32 z"/>
<path transform="translate(0,0)" fill="rgb(254,215,96)" d="M 1338.62 474.379 C 1347.79 472.293 1350.85 498.231 1357.62 509.426 C 1373.45 535.621 1400.97 551.825 1430.08 558.847 L 1430.08 769.889 L 1155.97 769.889 C 1133.73 684.33 1021.67 711.284 1002.23 677.318 C 983.023 643.767 1064.86 616.757 1085.38 665.431 L 1085.86 666.611 L 1155.97 666.611 C 1142.42 617.582 1123.66 591.88 1070.57 577.492 L 1070.57 554.007 L 1012.73 554.007 C 1012.39 561.866 1012.49 569.63 1012.73 577.492 C 959.804 591.838 924.436 632.768 936.457 689.366 C 954.436 757.181 1032.29 746.847 1080.91 769.889 L 662.791 769.889 L 662.791 674.525 C 707.543 653.243 733.551 621.304 739.147 570.219 C 793.485 563.57 847.86 553.008 901.933 544.277 L 1155.14 503.511 C 1216.24 493.554 1277.31 482.95 1338.62 474.379 z"/>
<path transform="translate(0,0)" fill="rgb(86,177,166)" d="M 319.87 779.639 C 378.242 821.959 408.014 812.555 477.102 812.531 L 1612.88 812.506 C 1731.95 812.353 1729.73 863.913 1729.74 956.86 L 1729.7 1057.03 L 1533.28 1057.06 C 1451.39 1057.03 1373.6 1046.02 1310.12 1108.72 C 1236.18 1181.74 1236.87 1303.96 1310.21 1377.07 C 1371.46 1438.15 1424.18 1433.86 1503.5 1433.56 L 1729.7 1433.56 L 1729.73 1581.52 C 1729.45 1679.32 1682.23 1683.39 1599.15 1683.42 L 477.975 1683.41 C 426.214 1683.42 329.868 1697.15 321.547 1623.32 C 317.48 1587.23 319.866 1549.18 319.871 1512.83 L 319.871 956.755 C 319.872 897.82 318.332 838.518 319.87 779.639 z"/>
</svg>