<svg version="1.1" id="Layer_1" xmlns="http://www.w3.org/2000/svg" xmlns:xlink="http://www.w3.org/1999/xlink" x="0px" y="0px"
	 width="100%" viewBox="0 0 1024 1024" enable-background="new 0 0 1024 1024" xml:space="preserve">
<path fill="#FCFEFD" opacity="1.000000" stroke="none" 
	d="
M569.000000,1025.000000 
	C379.333344,1025.000000 190.166672,1025.000000 1.000000,1025.000000 
	C1.000000,683.666687 1.000000,342.333344 1.000000,1.000000 
	C342.333344,1.000000 683.666687,1.000000 1025.000000,1.000000 
	C1025.000000,342.333344 1025.000000,683.666687 1025.000000,1025.000000 
	C873.166687,1025.000000 721.333313,1025.000000 569.000000,1025.000000 
M922.565979,660.866455 
	C922.871643,660.406433 923.177307,659.946472 923.454224,659.397278 
	C923.454224,659.397278 923.547241,659.409363 924.057068,659.008423 
	C926.867249,653.385742 929.677490,647.763000 932.851074,641.688965 
	C932.886475,641.119934 932.921875,640.550964 933.313171,639.289978 
	C933.848816,635.343750 934.838257,631.398926 934.850464,627.451050 
	C934.981018,585.137817 935.027283,542.823853 934.916321,500.510590 
	C934.894226,492.099426 932.838013,484.063110 927.992859,476.977478 
	C927.992859,476.977478 928.063416,476.958557 927.967651,476.265167 
	C923.337585,471.137634 918.707458,466.010101 914.032349,460.983490 
	C914.032349,460.983490 914.118286,460.914001 913.802612,460.318848 
	C910.867432,458.603455 907.932312,456.888062 904.513428,454.717865 
	C903.875977,454.140747 903.238586,453.563629 902.735779,452.059967 
	C902.670776,418.930115 902.712219,385.799530 902.484314,352.670807 
	C902.402222,340.737305 901.672729,328.808258 901.315247,316.032593 
	C901.019653,314.229034 900.835876,312.398743 900.411926,310.625916 
	C892.168823,276.155396 871.731567,251.568939 839.886169,236.372971 
	C836.964172,234.978668 835.543579,233.086212 834.116943,230.248978 
	C829.739624,221.543442 825.652466,212.454391 819.787659,204.788040 
	C810.086853,192.107513 797.786133,182.185852 781.805725,176.353043 
	C772.206482,174.296967 762.607300,172.240891 752.340820,169.983780 
	C751.882874,170.037384 751.424988,170.091003 750.048706,169.970886 
	C746.716492,169.929657 743.384277,169.852631 740.052063,169.852356 
	C585.418579,169.839905 430.785126,169.832870 276.151642,169.828674 
	C246.658615,169.827881 217.165436,169.789566 187.672638,169.873260 
	C175.782684,169.906998 164.154999,171.503174 152.640289,176.831604 
	C120.611061,189.618378 100.673615,218.458572 100.566864,252.623413 
	C100.439850,293.278656 100.532448,333.934601 100.523315,374.590240 
	C100.494415,503.221039 100.452141,631.851807 100.467194,760.482605 
	C100.467834,765.970276 100.472015,771.541870 101.348793,776.932129 
	C107.860931,816.968201 142.511597,850.539124 182.989853,854.909119 
	C198.487808,856.582336 214.258987,855.976685 229.905777,855.980713 
	C417.356232,856.029053 604.806763,855.913940 792.257080,856.066223 
	C823.953613,856.091980 850.818054,845.494934 872.779053,822.620911 
	C883.533630,811.419373 891.559143,798.546814 896.835754,783.153809 
	C897.592346,780.449402 898.348938,777.744934 899.553589,774.555603 
	C899.687744,773.698608 899.821899,772.841614 900.302307,771.301392 
	C900.873962,766.533325 901.445618,761.765259 902.231201,756.081360 
	C902.335449,730.068481 902.439697,704.055542 902.806091,677.336548 
	C904.665039,675.705750 906.523987,674.074951 908.104431,672.044739 
	C908.104431,672.044739 908.390198,672.446960 909.042603,672.256653 
	C911.174072,670.676819 913.305603,669.096924 915.440002,667.424316 
	C915.440002,667.424316 915.532654,667.420349 915.906799,667.339417 
	C916.148438,667.215088 916.306702,667.022339 916.580505,666.644409 
	C916.580505,666.644409 916.725769,666.465393 917.264282,666.144348 
	C918.866577,664.444336 920.468933,662.744324 922.002380,661.007812 
	C922.002380,661.007812 922.047119,661.071716 922.565979,660.866455 
z"/>
<path fill="#053555" opacity="1.000000" stroke="none" 
	d="
M902.601135,452.986481 
	C903.238586,453.563629 903.875977,454.140747 904.794128,455.285645 
	C907.004944,459.478058 909.922485,461.338165 914.118286,460.914001 
	C914.118286,460.914001 914.032349,460.983490 914.037109,461.311890 
	C914.090149,462.129211 913.950195,462.786896 914.214661,463.081757 
	C918.316895,467.654144 922.459595,472.190674 926.642639,476.689270 
	C926.907043,476.973572 927.580322,476.877625 928.063416,476.958557 
	C928.063416,476.958557 927.992859,476.977478 927.998413,477.357422 
	C928.081970,478.560822 927.935608,479.492371 928.272400,480.191071 
	C931.789856,487.487427 933.070923,495.171906 933.051025,503.247864 
	C932.954651,542.320557 933.044373,581.393677 932.964966,620.466492 
	C932.953918,625.909668 932.314697,631.349487 932.102173,636.796143 
	C932.061218,637.845398 932.655762,638.919373 932.957153,639.981934 
	C932.921875,640.550964 932.886475,641.119934 932.318604,642.013306 
	C929.234741,646.466125 926.553040,650.522583 924.211182,654.766602 
	C923.504883,656.046570 923.742249,657.847229 923.547241,659.409363 
	C923.547241,659.409363 923.454224,659.397278 923.146118,659.421875 
	C922.574341,659.988281 922.310730,660.529968 922.047119,661.071716 
	C922.047119,661.071716 922.002380,661.007812 921.620850,661.010742 
	C917.057739,660.614624 915.894836,662.714661 916.725769,666.465393 
	C916.725769,666.465393 916.580505,666.644409 916.231567,666.593628 
	C915.765991,666.835388 915.649292,667.127869 915.532593,667.420349 
	C915.532654,667.420349 915.440002,667.424316 915.023071,667.328247 
	C910.034363,665.990723 909.425842,669.473389 908.390198,672.446960 
	C908.390198,672.446960 908.104431,672.044739 907.850037,672.141663 
	C904.199585,672.763123 900.677002,673.141846 901.002686,678.429749 
	C900.998718,704.947815 900.999268,730.994690 900.949158,757.437256 
	C900.584351,762.550232 900.270203,767.267456 899.956055,771.984619 
	C899.821899,772.841614 899.687744,773.698608 898.945312,774.858643 
	C897.656067,778.006958 896.975037,780.852234 896.294006,783.697449 
	C891.559143,798.546814 883.533630,811.419373 872.779053,822.620911 
	C850.818054,845.494934 823.953613,856.091980 792.257080,856.066223 
	C604.806763,855.913940 417.356232,856.029053 229.905777,855.980713 
	C214.258987,855.976685 198.487808,856.582336 182.989853,854.909119 
	C142.511597,850.539124 107.860931,816.968201 101.348793,776.932129 
	C100.472015,771.541870 100.467834,765.970276 100.467194,760.482605 
	C100.452141,631.851807 100.494415,503.221039 100.523315,374.590240 
	C100.532448,333.934601 100.439850,293.278656 100.566864,252.623413 
	C100.673615,218.458572 120.611061,189.618378 153.451111,176.876709 
	C155.905212,176.814072 157.578308,176.868240 159.186905,176.572052 
	C169.014099,174.762695 178.823807,171.266724 188.644470,171.249466 
	C373.833282,170.924301 559.022766,171.010620 744.212158,170.969910 
	C746.463867,170.969406 748.715393,170.431595 750.967041,170.144592 
	C751.424988,170.091003 751.882874,170.037384 752.681519,170.437683 
	C753.289856,171.455841 753.490051,172.465790 753.835144,172.518021 
	C759.790649,173.419388 765.771301,174.153397 771.730713,175.030655 
	C775.275391,175.552460 778.792847,176.258972 782.322571,176.882446 
	C797.786133,182.185852 810.086853,192.107513 819.787659,204.788040 
	C825.652466,212.454391 829.739624,221.543442 834.116943,230.248978 
	C835.543579,233.086212 836.964172,234.978668 839.886169,236.372971 
	C871.731567,251.568939 892.168823,276.155396 900.411926,310.625916 
	C900.835876,312.398743 901.019653,314.229034 900.957886,316.697937 
	C900.728271,320.603333 900.965149,323.843353 900.967285,327.083496 
	C900.994019,367.155243 900.964478,407.227051 901.056274,447.298584 
	C901.060608,449.195709 902.063354,451.090576 902.601135,452.986481 
M586.001526,470.997498 
	C586.001526,470.997498 586.015320,471.004913 586.765808,471.034973 
	C589.869080,469.079742 592.972290,467.124512 596.123291,465.051392 
	C596.123291,465.051392 596.234009,465.114044 596.986023,465.137146 
	C598.322693,464.421906 599.659302,463.706665 601.276550,462.782471 
	C601.276550,462.782471 601.626343,462.788757 602.451660,462.903931 
	C606.706909,461.944183 611.226135,461.598145 615.165161,459.903381 
	C624.858582,455.732849 635.049194,455.002838 645.270691,454.956268 
	C684.744324,454.776459 724.219238,454.912170 763.693359,454.797028 
	C765.416870,454.792023 767.136658,453.473480 768.800659,452.070923 
	C768.849792,451.377075 768.898865,450.683258 769.275330,449.827209 
	C769.165771,449.555847 769.056213,449.284485 768.810608,448.111908 
	C768.852417,445.076660 768.894287,442.041443 769.486389,438.386688 
	C769.622742,437.579315 769.877258,436.772095 769.878174,435.964569 
	C769.899170,417.539917 769.911011,399.115173 769.849060,380.690704 
	C769.844910,379.456360 769.242981,378.224030 768.757141,376.243835 
	C768.558105,374.487915 768.359009,372.732025 768.626282,370.391327 
	C770.311218,365.642761 766.705872,363.318115 764.252319,360.272675 
	C759.714355,354.640076 754.096252,352.192261 746.225830,353.153687 
	C738.096313,349.435699 734.682434,343.689667 736.246338,336.356689 
	C737.682739,329.621124 743.733093,325.093201 751.843140,324.906158 
	C754.486084,324.845215 757.192627,324.977631 759.780212,325.482452 
	C783.051453,330.022491 800.864502,350.909607 801.164429,374.642365 
	C801.471741,398.964203 801.227356,423.292999 801.224548,447.618744 
	C801.224365,449.408844 801.224548,451.198914 801.224548,453.298218 
	C807.157898,453.298218 812.558655,453.298218 818.171448,453.298218 
	C818.324280,452.193848 818.532593,451.393829 818.531494,450.594147 
	C818.487549,420.104553 818.619995,389.612854 818.282227,359.126373 
	C818.110352,343.609283 811.008789,331.018463 799.841064,320.568756 
	C785.546753,307.193665 768.218933,303.420288 749.189148,303.486481 
	C679.044434,303.730560 608.898193,303.545807 538.752563,303.560303 
	C430.286316,303.582703 321.820068,303.673096 213.353821,303.641754 
	C194.564728,303.636322 175.681351,304.719482 156.451889,299.887756 
	C152.266830,298.595886 148.081772,297.304016 143.446213,295.873077 
	C143.446213,298.059509 143.447556,299.547150 143.446030,301.034790 
	C143.371994,372.760437 143.272263,444.486084 143.244247,516.211731 
	C143.238403,531.169495 143.497604,546.127441 143.494278,561.618408 
	C143.550644,561.793274 143.607025,561.968201 143.411896,562.950806 
	C143.501541,564.907227 143.591187,566.863708 143.482239,569.603516 
	C143.567551,572.122070 143.652863,574.640564 143.518600,577.991699 
	C143.586670,580.277893 143.654724,582.564148 143.447037,585.266113 
	C143.514053,585.910583 143.581070,586.555054 143.410202,587.954468 
	C143.492798,589.259583 143.575394,590.564697 143.501831,592.505432 
	C143.554764,592.717102 143.607712,592.928772 143.414307,593.788696 
	C143.503250,594.465149 143.592209,595.141663 143.478439,596.699951 
	C143.542114,608.822876 143.605789,620.945801 143.416473,633.798462 
	C143.497742,634.813416 143.578995,635.828308 143.465576,637.610046 
	C143.532837,638.129150 143.600113,638.648193 143.421371,639.698730 
	C143.506912,640.070007 143.592438,640.441345 143.471054,641.743591 
	C143.527863,644.907837 143.584671,648.072021 143.376694,652.102478 
	C143.470276,656.334717 143.563858,660.566956 143.336426,665.571777 
	C143.433182,673.462402 143.529953,681.353088 143.365814,689.850708 
	C143.448273,690.494019 143.530746,691.137329 143.406540,692.674316 
	C143.482086,694.191406 143.557632,695.708496 143.380280,697.747131 
	C143.461899,698.115356 143.543503,698.483582 143.462082,699.506775 
	C143.516037,699.725159 143.570007,699.943542 143.371338,700.794922 
	C143.462006,701.457886 143.552689,702.120850 143.435181,703.683411 
	C143.529678,709.101624 143.624176,714.519897 143.432266,720.623840 
	C143.521912,721.101135 143.611557,721.578430 143.457520,722.809204 
	C143.514603,724.954834 143.571686,727.100403 143.337280,730.041809 
	C143.415909,732.282227 143.494522,734.522583 143.369873,737.649231 
	C143.438309,738.852966 143.506744,740.056641 143.321014,741.919983 
	C143.385529,742.850586 143.450027,743.781189 143.277054,745.525391 
	C143.366776,750.111084 143.456497,754.696777 143.350266,760.132446 
	C144.608658,772.144409 148.579239,782.884827 158.206467,791.711182 
	C166.738068,800.614136 177.300186,804.881897 189.499985,804.923889 
	C224.148880,805.043152 258.798279,805.039429 293.447479,805.042236 
	C447.872009,805.054810 602.296509,805.023804 756.721008,805.114441 
	C768.216248,805.121216 778.785583,802.618958 788.450684,796.361084 
	C804.495117,785.972839 815.911499,771.756836 817.647339,752.625000 
	C819.340698,733.961670 818.175110,715.039001 818.557434,695.306702 
	C818.557434,690.390076 818.557434,685.473511 818.557434,680.262817 
	C812.666321,680.262817 807.322754,680.262817 801.598328,680.262817 
	C801.598328,685.394531 801.598328,690.295471 801.409546,696.088623 
	C801.339905,707.738770 801.347412,719.389954 801.184509,731.038757 
	C800.845886,755.242981 784.255432,776.111328 760.667297,781.491211 
	C756.116333,782.529236 751.069519,782.531860 746.442383,781.801941 
	C740.989624,780.941711 737.236145,777.172424 736.219360,771.507446 
	C735.168152,765.651062 736.606567,760.403381 741.920654,757.169983 
	C744.835693,755.396301 748.190491,754.158875 751.504639,753.262573 
	C761.595764,750.533691 768.381470,743.018311 768.649292,732.594177 
	C768.969543,720.127319 768.591675,707.642639 768.700684,694.226135 
	C768.700684,689.625916 768.700684,685.025696 768.700684,680.097473 
	C766.149902,680.097473 764.340149,680.095947 762.530334,680.097656 
	C727.407410,680.130920 692.281067,680.456604 657.163391,680.042114 
	C644.592651,679.893799 631.719666,679.321838 619.576782,676.444519 
	C607.976196,673.695618 597.145508,667.697632 585.492493,662.643372 
	C583.708679,661.429138 581.885254,660.268921 580.147400,658.992126 
	C565.044128,647.896057 552.985046,634.223450 544.950928,616.418030 
	C543.925171,614.627502 542.899475,612.837036 541.646057,610.867004 
	C541.646057,610.867004 541.642578,610.577087 541.830200,609.722290 
	C541.714233,608.906616 541.653015,608.078796 541.474060,607.277161 
	C538.959167,596.010315 535.146179,584.852173 534.211548,573.457397 
	C532.915100,557.652588 534.864014,541.889160 541.685181,527.092651 
	C543.302063,523.585388 543.844971,519.583069 545.059326,515.034912 
	C545.364868,514.609985 545.670410,514.184998 546.015137,513.735107 
	C546.015137,513.735107 546.027771,513.648499 546.210144,513.023438 
	C546.479187,512.684570 546.748230,512.345764 547.701782,511.871765 
	C548.325256,510.472137 548.948669,509.072510 549.645386,507.661346 
	C549.645386,507.661346 549.641541,507.587219 550.344238,507.681366 
	C559.907043,497.713470 569.485291,487.760162 578.996521,477.743256 
	C579.601257,477.106293 579.685608,475.975159 580.211487,474.807190 
	C580.211487,474.807190 580.536743,474.735901 581.310974,474.836395 
	C582.874390,473.561371 584.437744,472.286346 586.001526,470.997498 
M191.161301,245.998947 
	C189.107315,246.613586 187.053314,247.228226 184.160095,247.973846 
	C179.914520,247.318512 175.621475,246.881531 171.431549,245.970337 
	C152.585663,241.871979 144.688828,231.951157 145.283234,212.892456 
	C145.215912,212.952728 145.148590,213.013016 144.414398,212.753342 
	C134.459427,219.628586 131.605911,229.861954 136.705734,240.657242 
	C140.180801,248.013184 145.676483,253.475555 152.996674,256.915009 
	C166.386292,263.206238 180.658737,265.010132 195.305069,265.007935 
	C385.961243,264.979340 576.617615,265.149780 767.273376,264.861176 
	C806.427124,264.801910 834.464966,282.224304 853.009521,315.722260 
	C858.102600,324.922211 861.082458,335.292053 864.938599,345.835968 
	C865.323608,347.182465 865.708679,348.528961 866.085571,350.682281 
	C866.297302,351.449249 866.509033,352.216217 866.622498,353.720123 
	C867.100586,356.135742 867.578674,358.551331 868.056763,360.966949 
	C868.531982,360.944366 869.007202,360.921814 869.482422,360.899231 
	C869.715210,358.249725 869.947998,355.600189 870.510986,352.193512 
	C870.603699,351.100800 870.696411,350.008118 871.000427,348.330933 
	C870.962097,347.923187 870.923706,347.515411 871.050842,346.235535 
	C871.216309,343.743958 871.379822,341.252258 871.547607,338.760834 
	C873.883606,304.074341 859.242249,278.389954 829.264832,261.770508 
	C819.820740,256.534698 808.901794,253.959137 799.213745,250.061081 
	C798.808350,249.374664 798.402954,248.688248 798.735779,247.909485 
	C799.534180,247.003326 800.332642,246.097168 801.682922,244.564728 
	C797.580505,244.028336 794.626770,243.642120 791.530579,243.237289 
	C792.091370,245.040924 792.548096,246.510010 792.225830,247.975586 
	C787.917297,247.836823 783.608826,247.698044 778.826843,247.825546 
	C778.513000,247.698227 778.199158,247.570908 778.023560,246.656403 
	C778.880127,245.814667 779.601807,244.673843 780.629089,244.210556 
	C781.784790,243.689331 783.216125,243.779175 784.527466,243.603210 
	C783.908325,241.961502 783.648315,239.204010 782.608582,238.869446 
	C777.874695,237.346069 776.916870,229.653564 770.285278,231.396378 
	C770.079163,231.450546 769.435059,229.838516 769.751343,228.994141 
	C770.837646,228.074203 771.923889,227.154266 773.734924,226.081589 
	C774.712463,226.002609 775.690002,225.923630 777.828918,225.750809 
	C774.549683,223.367203 772.267151,221.708084 769.615417,219.469589 
	C761.508240,213.927231 752.547424,211.810287 742.742188,211.828506 
	C688.131958,211.929977 633.521301,211.821442 578.910828,211.793732 
	C573.264038,211.790863 567.617188,211.847534 561.062805,211.627762 
	C558.065918,211.706009 555.068970,211.851791 552.072083,211.852707 
	C448.111481,211.884537 344.150879,211.889557 240.190292,211.964706 
	C235.383713,211.968185 230.441864,211.987167 225.801102,213.044189 
	C217.590210,214.914383 210.063766,218.398178 204.423737,225.690582 
	C206.038269,225.896790 207.019196,226.022064 207.999725,226.958008 
	C208.731201,229.117844 209.169235,232.931839 210.249878,233.123550 
	C213.339920,233.671738 217.103714,233.806534 219.738708,229.990967 
	C221.158737,229.660858 222.578751,229.330734 224.009216,229.730240 
	C224.802216,231.249359 225.595215,232.768478 226.984573,235.430038 
	C223.430954,236.321213 220.075516,237.841232 216.738998,237.800781 
	C213.652634,237.763367 210.610092,235.971359 207.506912,235.099121 
	C199.526657,232.856094 192.935547,235.246658 187.366119,241.437195 
	C188.588715,242.299515 189.794510,243.150009 191.199768,244.524628 
	C191.466507,245.015198 191.733261,245.505783 191.161301,245.998947 
M866.585510,752.620056 
	C861.610901,777.730957 851.985535,800.506348 832.794678,818.478027 
	C849.994141,814.590027 873.844849,784.848511 870.838379,751.236206 
	C870.334656,746.997314 869.830933,742.758423 869.327209,738.519531 
	C869.013245,738.569641 868.699280,738.619751 868.385315,738.669861 
	C867.878967,743.083130 867.372620,747.496338 866.585510,752.620056 
M624.698303,631.257812 
	C625.156067,631.887695 625.516968,632.953918 626.086609,633.080383 
	C632.354431,634.472595 638.603821,636.244324 644.960205,636.859985 
	C651.637756,637.506775 658.429016,636.887817 665.165588,637.039490 
	C674.696106,637.254150 684.220032,637.843079 693.750488,637.955933 
	C707.481201,638.118652 721.215393,637.997498 734.948059,637.997498 
	C757.754639,637.997498 780.561829,638.087769 803.367615,637.952148 
	C812.230408,637.899414 821.090637,637.060608 829.951111,637.078796 
	C840.311401,637.100037 850.670532,637.666504 861.030212,637.995117 
	C863.106995,638.060974 865.231323,638.185425 865.656799,634.900330 
	C866.108887,634.959290 866.560974,635.018311 867.145630,635.787170 
	C871.330505,635.361145 875.528259,635.021851 879.684570,634.404114 
	C880.232422,634.322693 880.568726,632.818298 881.369019,631.408081 
	C891.431335,622.902161 886.746948,611.502014 888.089478,600.823242 
	C883.166748,600.823242 879.019836,600.823547 874.872864,600.823181 
	C835.211914,600.819824 795.550476,600.901184 755.890503,600.700745 
	C751.176941,600.676880 746.129517,599.926392 741.824036,598.116333 
	C727.330444,592.022705 719.356262,575.069214 723.117310,558.512085 
	C726.629211,543.052246 740.885010,532.755554 755.276550,532.890564 
	C796.100830,533.273315 836.931030,533.027405 877.758911,533.028931 
	C881.026245,533.029053 884.293579,533.028992 887.977234,533.028992 
	C887.977234,527.480591 887.993286,522.674927 887.969910,517.869385 
	C887.959412,515.704224 888.018738,513.523682 887.789795,511.377411 
	C886.982727,503.810089 881.720886,498.115448 874.198730,496.825806 
	C871.429626,496.351044 868.572510,496.221161 865.755371,496.219330 
	C805.264099,496.179932 744.772705,496.131104 684.281555,496.209869 
	C669.297485,496.229401 654.162292,495.431305 639.362854,497.216217 
	C611.633240,500.560516 592.553284,516.857849 582.543274,542.376648 
	C572.897278,566.967346 578.375671,589.761047 595.286072,609.909058 
	C603.411194,619.589722 613.908691,625.804260 624.698303,631.257812 
z"/>
<path fill="#0A2B3F" opacity="1.000000" stroke="none" 
	d="
M750.507874,170.057739 
	C748.715393,170.431595 746.463867,170.969406 744.212158,170.969910 
	C559.022766,171.010620 373.833282,170.924301 188.644470,171.249466 
	C178.823807,171.266724 169.014099,174.762695 159.186905,176.572052 
	C157.578308,176.868240 155.905212,176.814072 153.791092,176.890228 
	C164.154999,171.503174 175.782684,169.906998 187.672638,169.873260 
	C217.165436,169.789566 246.658615,169.827881 276.151642,169.828674 
	C430.785126,169.832870 585.418579,169.839905 740.052063,169.852356 
	C743.384277,169.852631 746.716492,169.929657 750.507874,170.057739 
z"/>
<path fill="#193E51" opacity="1.000000" stroke="none" 
	d="
M933.135132,639.635986 
	C932.655762,638.919373 932.061218,637.845398 932.102173,636.796143 
	C932.314697,631.349487 932.953918,625.909668 932.964966,620.466492 
	C933.044373,581.393677 932.954651,542.320557 933.051025,503.247864 
	C933.070923,495.171906 931.789856,487.487427 928.272400,480.191071 
	C927.935608,479.492371 928.081970,478.560822 928.027100,477.334595 
	C932.838013,484.063110 934.894226,492.099426 934.916321,500.510590 
	C935.027283,542.823853 934.981018,585.137817 934.850464,627.451050 
	C934.838257,631.398926 933.848816,635.343750 933.135132,639.635986 
z"/>
<path fill="#0A2B3F" opacity="1.000000" stroke="none" 
	d="
M902.668457,452.523224 
	C902.063354,451.090576 901.060608,449.195709 901.056274,447.298584 
	C900.964478,407.227051 900.994019,367.155243 900.967285,327.083496 
	C900.965149,323.843353 900.728271,320.603333 900.919556,317.120239 
	C901.672729,328.808258 902.402222,340.737305 902.484314,352.670807 
	C902.712219,385.799530 902.670776,418.930115 902.668457,452.523224 
z"/>
<path fill="#0A2B3F" opacity="1.000000" stroke="none" 
	d="
M900.999817,757.041504 
	C900.999268,730.994690 900.998718,704.947815 901.258911,678.446472 
	C901.861206,678.008850 902.202576,678.025757 902.544006,678.042664 
	C902.439697,704.055542 902.335449,730.068481 901.869995,756.552979 
	C901.339172,757.030212 901.169495,757.035828 900.999817,757.041504 
z"/>
<path fill="#0A2B3F" opacity="1.000000" stroke="none" 
	d="
M782.064148,176.617737 
	C778.792847,176.258972 775.275391,175.552460 771.730713,175.030655 
	C765.771301,174.153397 759.790649,173.419388 753.835144,172.518021 
	C753.490051,172.465790 753.289856,171.455841 753.015137,170.538208 
	C762.607300,172.240891 772.206482,174.296967 782.064148,176.617737 
z"/>
<path fill="#193E51" opacity="1.000000" stroke="none" 
	d="
M928.015503,476.611877 
	C927.580322,476.877625 926.907043,476.973572 926.642639,476.689270 
	C922.459595,472.190674 918.316895,467.654144 914.214661,463.081757 
	C913.950195,462.786896 914.090149,462.129211 914.059692,461.261444 
	C918.707458,466.010101 923.337585,471.137634 928.015503,476.611877 
z"/>
<path fill="#193E51" opacity="1.000000" stroke="none" 
	d="
M923.802124,659.208862 
	C923.742249,657.847229 923.504883,656.046570 924.211182,654.766602 
	C926.553040,650.522583 929.234741,646.466125 932.136902,642.239014 
	C929.677490,647.763000 926.867249,653.385742 923.802124,659.208862 
z"/>
<path fill="#193E51" opacity="1.000000" stroke="none" 
	d="
M900.949158,757.437256 
	C901.169495,757.035828 901.339172,757.030212 901.763062,757.010864 
	C901.445618,761.765259 900.873962,766.533325 900.129150,771.643005 
	C900.270203,767.267456 900.584351,762.550232 900.949158,757.437256 
z"/>
<path fill="#193E51" opacity="1.000000" stroke="none" 
	d="
M913.960449,460.616425 
	C909.922485,461.338165 907.004944,459.478058 905.036011,455.513062 
	C907.932312,456.888062 910.867432,458.603455 913.960449,460.616425 
z"/>
<path fill="#193E51" opacity="1.000000" stroke="none" 
	d="
M908.716431,672.351807 
	C909.425842,669.473389 910.034363,665.990723 915.021606,667.374634 
	C913.305603,669.096924 911.174072,670.676819 908.716431,672.351807 
z"/>
<path fill="#193E51" opacity="1.000000" stroke="none" 
	d="
M902.675049,677.689575 
	C902.202576,678.025757 901.861206,678.008850 901.263550,677.975220 
	C900.677002,673.141846 904.199585,672.763123 907.989258,672.341309 
	C906.523987,674.074951 904.665039,675.705750 902.675049,677.689575 
z"/>
<path fill="#193E51" opacity="1.000000" stroke="none" 
	d="
M916.994995,666.304871 
	C915.894836,662.714661 917.057739,660.614624 921.655273,661.029053 
	C920.468933,662.744324 918.866577,664.444336 916.994995,666.304871 
z"/>
<path fill="#193E51" opacity="1.000000" stroke="none" 
	d="
M896.564880,783.425659 
	C896.975037,780.852234 897.656067,778.006958 898.721313,775.101135 
	C898.348938,777.744934 897.592346,780.449402 896.564880,783.425659 
z"/>
<path fill="#193E51" opacity="1.000000" stroke="none" 
	d="
M922.306519,660.969116 
	C922.310730,660.529968 922.574341,659.988281 923.160522,659.466553 
	C923.177307,659.946472 922.871643,660.406433 922.306519,660.969116 
z"/>
<path fill="#193E51" opacity="1.000000" stroke="none" 
	d="
M915.719727,667.379883 
	C915.649292,667.127869 915.765991,666.835388 916.132202,666.652039 
	C916.306702,667.022339 916.148438,667.215088 915.719727,667.379883 
z"/>
<path fill="#FBFDFD" opacity="1.000000" stroke="none" 
	d="
M580.536743,474.735901 
	C580.536743,474.735901 580.211487,474.807190 579.783813,475.022278 
	C567.535217,484.260590 556.931396,494.401886 549.641541,507.587219 
	C549.641541,507.587219 549.645386,507.661346 549.353271,507.855530 
	C548.379822,509.368774 547.698547,510.687866 547.017273,512.006958 
	C546.748230,512.345764 546.479187,512.684570 546.018921,513.296875 
	C545.827637,513.570251 545.975952,513.760071 545.975952,513.760071 
	C545.670410,514.184998 545.364868,514.609985 544.693481,515.627991 
	C535.481445,533.289124 531.647400,551.520935 532.433960,570.627197 
	C533.003174,584.453491 535.104492,598.061829 541.642578,610.577087 
	C541.642578,610.577087 541.646057,610.867004 541.762939,611.313721 
	C542.880859,613.578430 543.881958,615.396362 544.882996,617.214355 
	C552.985046,634.223450 565.044128,647.896057 580.147400,658.992126 
	C581.885254,660.268921 583.708679,661.429138 585.750793,663.226196 
	C594.628113,672.482666 605.546326,677.413757 616.564331,681.922363 
	C638.537537,690.913818 661.885010,692.881897 685.252625,693.780396 
	C707.832642,694.648621 730.448303,694.588745 753.048340,694.935486 
	C758.204224,695.014587 763.360229,695.089050 768.516174,695.165649 
	C768.591675,707.642639 768.969543,720.127319 768.649292,732.594177 
	C768.381470,743.018311 761.595764,750.533691 751.504639,753.262573 
	C748.190491,754.158875 744.835693,755.396301 741.920654,757.169983 
	C736.606567,760.403381 735.168152,765.651062 736.219360,771.507446 
	C737.236145,777.172424 740.989624,780.941711 746.442383,781.801941 
	C751.069519,782.531860 756.116333,782.529236 760.667297,781.491211 
	C784.255432,776.111328 800.845886,755.242981 801.184509,731.038757 
	C801.347412,719.389954 801.339905,707.738770 801.926514,695.579773 
	C807.717163,695.457336 812.990967,695.843750 818.264709,696.230164 
	C818.175110,715.039001 819.340698,733.961670 817.647339,752.625000 
	C815.911499,771.756836 804.495117,785.972839 788.450684,796.361084 
	C778.785583,802.618958 768.216248,805.121216 756.721008,805.114441 
	C602.296509,805.023804 447.872009,805.054810 293.447479,805.042236 
	C258.798279,805.039429 224.148880,805.043152 189.499985,804.923889 
	C177.300186,804.881897 166.738068,800.614136 158.083023,790.990967 
	C157.629578,787.309937 157.012329,784.349243 157.011093,781.388306 
	C156.966263,674.063599 156.995377,566.738892 156.969803,459.414185 
	C156.964523,437.256042 156.785233,415.097992 156.765167,392.533203 
	C156.639908,387.671265 156.242859,383.214813 156.271500,378.761078 
	C156.330994,369.511597 156.616287,360.263550 156.864288,350.613556 
	C156.876083,349.135651 156.832367,348.059113 156.846375,346.656799 
	C156.868546,345.892975 156.832993,345.454926 156.860138,344.551086 
	C156.998474,329.472839 157.074112,314.860352 157.149750,300.247833 
	C175.681351,304.719482 194.564728,303.636322 213.353821,303.641754 
	C321.820068,303.673096 430.286316,303.582703 538.752563,303.560303 
	C608.898193,303.545807 679.044434,303.730560 749.189148,303.486481 
	C768.218933,303.420288 785.546753,307.193665 799.841064,320.568756 
	C811.008789,331.018463 818.110352,343.609283 818.282227,359.126373 
	C818.619995,389.612854 818.487549,420.104553 818.531494,450.594147 
	C818.532593,451.393829 818.324280,452.193848 818.171448,453.298218 
	C812.558655,453.298218 807.157898,453.298218 801.224548,453.298218 
	C801.224548,451.198914 801.224365,449.408844 801.224548,447.618744 
	C801.227356,423.292999 801.471741,398.964203 801.164429,374.642365 
	C800.864502,350.909607 783.051453,330.022491 759.780212,325.482452 
	C757.192627,324.977631 754.486084,324.845215 751.843140,324.906158 
	C743.733093,325.093201 737.682739,329.621124 736.246338,336.356689 
	C734.682434,343.689667 738.096313,349.435699 746.825439,353.455078 
	C757.903625,355.201263 765.182800,360.498535 768.159912,370.976105 
	C768.359009,372.732025 768.558105,374.487915 768.730225,377.006653 
	C768.780884,398.181732 768.858521,418.593964 768.936157,439.006195 
	C768.894287,442.041443 768.852417,445.076660 768.786499,448.806702 
	C768.824219,449.664124 768.886108,449.826782 768.947937,449.989410 
	C768.898865,450.683258 768.849792,451.377075 768.383301,452.537079 
	C762.973999,453.097412 757.982422,453.249634 752.990173,453.276520 
	C714.016663,453.486420 675.038696,453.401428 636.072021,454.027893 
	C624.124268,454.219971 612.401245,457.088684 601.626343,462.788757 
	C601.626343,462.788757 601.276550,462.782471 600.796875,462.867004 
	C598.956116,463.672394 597.595093,464.393219 596.234009,465.114075 
	C596.234009,465.114044 596.123291,465.051392 595.746277,465.125122 
	C592.251282,467.134186 589.133301,469.069550 586.015320,471.004883 
	C586.015320,471.004913 586.001526,470.997498 585.663757,471.040039 
	C583.729553,472.300354 582.133118,473.518127 580.536743,474.735901 
M598.952942,782.078796 
	C619.847717,782.116516 640.742432,782.188049 661.637207,782.175293 
	C670.083801,782.170166 678.530334,781.980774 687.666931,782.000610 
	C688.778564,781.299927 689.890198,780.599243 691.661926,779.930359 
	C692.500488,778.982178 693.339050,778.033997 694.637451,776.979675 
	C694.637451,776.979675 694.965637,776.640442 695.583435,776.466736 
	C696.499756,775.026855 697.416138,773.586975 698.724121,771.717529 
	C698.752319,771.147217 698.780457,770.576965 699.012878,769.219910 
	C697.640137,765.996216 696.267395,762.772522 694.730042,759.269043 
	C694.730042,759.269043 694.441101,759.120789 694.112488,758.559387 
	C691.257263,757.402344 688.409790,755.262573 685.545715,755.240234 
	C656.950867,755.017273 628.352905,755.080505 599.756653,755.217224 
	C593.129944,755.248901 588.361572,759.062317 586.745056,764.837036 
	C585.040405,770.926575 587.168213,776.326111 592.970947,780.043091 
	C592.970947,780.043091 592.785522,780.206055 593.212585,780.777283 
	C594.820068,781.151245 596.427551,781.525208 598.952942,782.078796 
M385.929749,782.092896 
	C403.276428,782.019043 420.623138,781.945190 438.720184,782.013611 
	C446.325836,780.100708 450.695831,774.378296 449.959381,767.296326 
	C449.202393,760.016846 443.840302,755.179443 436.005676,755.148743 
	C419.861725,755.085510 403.716309,755.131470 387.572998,755.286072 
	C380.426819,755.354492 375.325104,760.248291 374.639923,767.224121 
	C373.919708,774.556641 377.879517,780.124329 385.929749,782.092896 
M169.075653,382.088409 
	C172.731354,389.843323 177.394119,392.851654 184.487061,392.031525 
	C190.711090,391.311859 196.142593,386.945862 196.840912,380.753235 
	C198.640518,364.794312 213.319519,353.975281 226.557434,352.841644 
	C235.989548,352.033966 245.514679,352.354523 254.994171,352.045135 
	C263.190277,351.777710 269.092987,345.931152 268.792542,338.589355 
	C268.482910,331.022583 262.159454,324.942413 254.429535,324.894104 
	C245.598587,324.838898 236.766388,324.801727 227.935944,324.885254 
	C205.105621,325.101196 187.693588,335.201141 175.595123,354.335052 
	C170.454636,362.464844 167.004425,371.293213 169.075653,382.088409 
M648.500244,352.071381 
	C661.643127,352.043396 674.787598,352.126923 687.928406,351.945496 
	C695.793091,351.836914 701.373413,346.146667 701.320374,338.785461 
	C701.267212,331.411804 695.165955,325.001190 687.689819,324.976685 
	C659.906677,324.885559 632.122742,324.882507 604.339661,324.989014 
	C596.074280,325.020691 590.525024,330.794373 590.481140,338.831879 
	C590.437012,346.913025 595.821472,352.023712 604.577576,352.053894 
	C618.884949,352.103241 633.192566,352.072449 648.500244,352.071381 
M198.209229,734.973450 
	C197.542496,732.238647 197.075760,729.435791 196.172531,726.781494 
	C193.144516,717.883057 183.578659,714.496460 175.573517,719.373535 
	C169.516510,723.063721 166.603058,730.107788 168.490707,738.623230 
	C172.743652,757.809021 184.158585,771.461365 202.163269,779.074890 
	C207.326019,781.257996 213.420609,782.120483 219.068832,782.050354 
	C226.232437,781.961487 231.384964,776.307190 232.022186,769.774658 
	C232.678024,763.051208 228.856537,757.414185 221.955246,754.961853 
	C220.860687,754.572937 219.748352,754.215332 218.620193,753.942566 
	C208.594269,751.518982 202.013062,745.315979 198.209229,734.973450 
M197.808365,474.631012 
	C197.811920,473.466675 197.836105,472.301971 197.815735,471.138062 
	C197.664169,462.476074 191.843002,456.055145 183.969009,455.853546 
	C175.309906,455.631836 168.777466,461.673279 168.614975,470.622772 
	C168.382553,483.424835 168.271515,496.239563 168.581512,509.037445 
	C168.799347,518.031433 175.415207,524.302734 183.323486,523.902710 
	C191.872772,523.470215 197.821396,516.978638 197.828049,508.030853 
	C197.836090,497.219757 197.815933,486.408661 197.808365,474.631012 
M197.342056,646.482300 
	C197.495850,632.184753 197.942184,617.881897 197.679611,603.591980 
	C197.548981,596.482544 192.332779,591.107666 185.974747,589.824829 
	C180.191452,588.657959 173.676193,591.402832 170.815552,597.022278 
	C169.374115,599.853699 168.712830,603.349854 168.645432,606.565247 
	C168.401382,618.206116 168.458206,629.856567 168.597244,641.501099 
	C168.700241,650.128235 172.837357,655.724976 179.720184,657.107971 
	C187.358551,658.642700 193.511566,655.159912 197.342056,646.482300 
M335.932281,767.729370 
	C333.876221,758.399658 329.798859,755.088806 320.372681,755.099915 
	C309.056488,755.113159 297.739746,755.063049 286.424316,755.164185 
	C277.328522,755.245483 271.872314,760.455688 271.960693,768.736023 
	C272.050537,777.152710 277.377228,782.181152 286.432220,782.212463 
	C298.080994,782.252747 309.730377,782.215027 321.379089,782.146362 
	C330.261169,782.094055 335.013977,777.608215 335.932281,767.729370 
M354.209869,352.000427 
	C363.164337,351.737518 368.723480,346.528473 368.725494,338.398926 
	C368.727448,330.661896 362.497192,324.942017 353.958221,324.931183 
	C342.325043,324.916382 330.691498,324.916931 319.058655,324.993530 
	C310.461334,325.050140 304.668030,330.690826 304.751587,338.763062 
	C304.835846,346.902740 310.202393,351.975861 318.871918,351.999786 
	C330.338837,352.031403 341.806000,351.994995 354.209869,352.000427 
M539.914001,757.355164 
	C537.070007,756.602844 534.239868,755.270996 531.379578,755.202637 
	C521.241089,754.960144 511.091614,755.084534 500.947632,755.195251 
	C492.992554,755.282043 487.211334,761.049133 487.267059,768.624512 
	C487.324524,776.434937 492.735138,781.996765 500.820007,782.125305 
	C511.128479,782.289307 521.441589,782.210999 531.752380,782.164551 
	C538.614624,782.133667 543.479675,778.771545 545.532654,772.815796 
	C547.372070,767.479675 545.625183,762.273743 539.914001,757.355164 
M490.697784,334.545258 
	C488.545654,345.320251 493.667389,351.915924 504.383331,351.988831 
	C514.541626,352.057953 524.703186,352.108429 534.859070,351.928711 
	C542.589966,351.791901 548.151428,346.011322 548.114136,338.596039 
	C548.075745,330.964020 542.218567,325.022614 534.548950,324.977783 
	C524.723511,324.920380 514.895630,325.081696 505.072510,324.920898 
	C498.316833,324.810303 493.607880,327.594421 490.697784,334.545258 
M456.368561,329.196777 
	C452.630402,327.780060 448.967224,325.453156 445.138336,325.137787 
	C437.381348,324.498840 429.533356,324.865540 421.725128,324.974762 
	C413.936890,325.083679 408.541260,330.886780 408.640442,338.816101 
	C408.739746,346.757477 413.779358,351.939880 421.660248,352.018433 
	C429.469360,352.096313 437.283630,351.876404 445.088684,352.068817 
	C451.151245,352.218262 455.926392,350.089783 458.688721,344.704315 
	C461.363037,339.490479 460.374207,334.394257 456.368561,329.196777 
z"/>
<path fill="#F8FCFC" opacity="1.000000" stroke="none" 
	d="
M867.013062,635.077271 
	C866.560974,635.018311 866.108887,634.959290 864.863647,634.911743 
	C794.604248,634.934814 725.137329,635.111877 655.672791,634.775635 
	C645.521667,634.726501 635.382324,632.231079 625.237549,630.867554 
	C613.908691,625.804260 603.411194,619.589722 595.286072,609.909058 
	C578.375671,589.761047 572.897278,566.967346 582.543274,542.376648 
	C592.553284,516.857849 611.633240,500.560516 639.362854,497.216217 
	C654.162292,495.431305 669.297485,496.229401 684.281555,496.209869 
	C744.772705,496.131104 805.264099,496.179932 865.755371,496.219330 
	C868.572510,496.221161 871.429626,496.351044 874.198730,496.825806 
	C881.720886,498.115448 886.982727,503.810089 887.789795,511.377411 
	C888.018738,513.523682 887.959412,515.704224 887.969910,517.869385 
	C887.993286,522.674927 887.977234,527.480591 887.977234,533.028992 
	C884.293579,533.028992 881.026245,533.029053 877.758911,533.028931 
	C836.931030,533.027405 796.100830,533.273315 755.276550,532.890564 
	C740.885010,532.755554 726.629211,543.052246 723.117310,558.512085 
	C719.356262,575.069214 727.330444,592.022705 741.824036,598.116333 
	C746.129517,599.926392 751.176941,600.676880 755.890503,600.700745 
	C795.550476,600.901184 835.211914,600.819824 874.872864,600.823181 
	C879.019836,600.823547 883.166748,600.823242 888.089478,600.823242 
	C886.746948,611.502014 891.431335,622.902161 880.799927,631.689697 
	C875.824951,633.006653 871.419006,634.041931 867.013062,635.077271 
M638.857361,607.971680 
	C640.355225,607.986511 641.853333,608.024475 643.351013,608.012756 
	C667.385559,607.825073 687.192566,587.953064 687.180298,564.046204 
	C687.168091,540.291321 667.504822,521.132996 643.171631,521.167725 
	C619.257629,521.201843 599.777893,540.704590 599.312988,564.581360 
	C598.919861,584.773254 615.768372,605.342957 638.857361,607.971680 
z"/>
<path fill="#F3F9FA" opacity="1.000000" stroke="none" 
	d="
M777.885315,247.443573 
	C778.199158,247.570908 778.513000,247.698227 779.311279,248.010498 
	C786.083069,248.852295 792.370483,249.509140 798.657837,250.165985 
	C808.901794,253.959137 819.820740,256.534698 829.264832,261.770508 
	C859.242249,278.389954 873.883606,304.074341 871.547607,338.760834 
	C871.379822,341.252258 871.216309,343.743958 870.779236,346.800720 
	C870.601440,347.882416 870.695251,348.398895 870.789124,348.915405 
	C870.696411,350.008118 870.603699,351.100800 870.057861,352.599670 
	C868.643433,352.998291 867.682129,352.990753 866.720825,352.983185 
	C866.509033,352.216217 866.297302,351.449249 866.311462,350.089233 
	C866.035583,348.039154 865.533752,346.582123 865.031982,345.125061 
	C861.082458,335.292053 858.102600,324.922211 853.009521,315.722260 
	C834.464966,282.224304 806.427124,264.801910 767.273376,264.861176 
	C576.617615,265.149780 385.961243,264.979340 195.305069,265.007935 
	C180.658737,265.010132 166.386292,263.206238 152.996674,256.915009 
	C145.676483,253.475555 140.180801,248.013184 136.705734,240.657242 
	C131.605911,229.861954 134.459427,219.628586 144.724670,212.894913 
	C145.034927,213.036484 144.986740,213.002121 144.986740,213.002121 
	C144.688828,231.951157 152.585663,241.871979 171.431549,245.970337 
	C175.621475,246.881531 179.914520,247.318512 185.037018,248.014984 
	C191.275650,248.023132 196.637390,247.990143 202.427948,248.058441 
	C204.905014,248.093964 206.953262,248.028183 209.461456,248.058868 
	C361.641052,248.187256 513.360657,248.228775 665.080322,248.240417 
	C687.056213,248.242111 709.032104,248.100494 731.413513,248.136749 
	C733.210693,248.175110 734.602356,248.101883 736.452881,248.134018 
	C743.607483,248.161652 750.303284,248.083923 757.327759,248.107986 
	C758.104919,248.141388 758.553406,248.072998 759.460999,248.101639 
	C765.829956,247.918381 771.739685,247.638092 777.709961,247.375092 
	C777.770386,247.392395 777.885315,247.443573 777.885315,247.443573 
z"/>
<path fill="#033559" opacity="1.000000" stroke="none" 
	d="
M735.994019,248.028671 
	C734.602356,248.101883 733.210693,248.175110 731.211060,247.868820 
	C729.735901,247.323593 728.868652,247.157867 727.910156,246.600525 
	C727.627625,245.949997 727.448120,245.474533 727.243347,245.463394 
	C717.948669,244.957550 708.653809,244.421066 699.351379,244.155487 
	C698.593567,244.133865 697.781982,245.995605 696.567627,246.985336 
	C694.428162,246.984756 692.716553,246.981033 690.986755,246.567780 
	C689.017822,241.768433 685.217773,244.793549 682.340454,244.180893 
	C681.781860,244.061966 680.787720,245.988388 679.526245,246.977127 
	C653.707703,246.979523 628.357483,246.976135 602.988525,246.564957 
	C601.401428,241.999329 597.899658,244.660110 595.333923,244.184479 
	C594.747314,244.075729 593.784668,245.995132 592.526733,246.984711 
	C554.276917,246.990585 516.495483,246.993118 478.713989,246.994766 
	C473.810364,246.994980 468.906769,246.990662 463.935791,246.620911 
	C459.966461,243.108597 453.390717,243.456604 449.529694,246.989868 
	C413.709351,246.991333 378.356171,246.990479 342.939972,246.644928 
	C341.194244,244.333237 339.844910,244.246857 338.528259,246.990005 
	C298.041656,246.986191 258.023499,246.980362 217.996368,246.608597 
	C215.862259,245.066757 213.812515,243.116989 211.593872,242.900833 
	C208.461182,242.595612 205.203583,243.572449 201.541931,244.000824 
	C197.723083,244.000458 194.361710,244.000473 191.000320,244.000488 
	C189.794510,243.150009 188.588715,242.299515 187.366119,241.437195 
	C192.935547,235.246658 199.526657,232.856094 207.506912,235.099121 
	C210.610092,235.971359 213.652634,237.763367 216.738998,237.800781 
	C220.075516,237.841232 223.430954,236.321213 226.984573,235.430038 
	C225.595215,232.768478 224.802216,231.249359 224.251984,229.189667 
	C224.663635,227.871780 224.832504,227.094482 225.445007,226.233154 
	C228.592056,226.211639 231.295486,226.274124 234.019638,226.707352 
	C236.889557,230.003571 238.343185,229.823196 240.423096,226.249619 
	C242.562866,226.215393 244.280991,226.269989 245.999664,226.742737 
	C245.501526,231.763794 246.522736,234.490768 251.961929,232.244049 
	C252.760727,231.914093 253.934357,232.212952 254.851868,232.492416 
	C263.447174,235.110306 263.442383,235.127502 264.984985,226.808777 
	C265.014954,226.647263 264.996582,226.476776 265.448486,226.226135 
	C268.932037,226.199478 271.967896,226.257172 275.085144,226.626404 
	C276.443237,226.730072 277.719849,226.522217 279.327820,226.232498 
	C280.105133,226.215622 280.551178,226.280609 280.998718,226.746307 
	C280.601440,230.741394 282.156555,232.327271 285.802185,232.027969 
	C287.754639,231.867661 289.731506,231.966766 291.696350,232.003922 
	C295.565979,232.077057 297.668793,230.579910 297.204346,226.269623 
	C300.060730,226.211151 302.530029,226.258560 305.021729,226.690094 
	C308.090668,230.168869 311.330353,229.854858 313.462097,226.221268 
	C358.861359,226.145691 403.798798,226.193069 448.736206,226.146866 
	C496.164062,226.098099 543.591858,225.960068 591.350586,225.916931 
	C592.121338,226.042953 592.561279,226.113068 593.065308,226.562653 
	C595.155884,227.625214 597.181030,228.899979 599.209106,228.904785 
	C647.470947,229.019180 695.733032,228.997147 744.081055,229.382843 
	C747.115479,229.835922 750.064087,229.906189 753.460693,229.978745 
	C758.937500,229.655121 763.966309,229.329224 768.995117,229.003311 
	C769.435059,229.838516 770.079163,231.450546 770.285278,231.396378 
	C776.916870,229.653564 777.874695,237.346069 782.608582,238.869446 
	C783.648315,239.204010 783.908325,241.961502 784.527466,243.603195 
	C783.216125,243.779175 781.784790,243.689331 780.629089,244.210556 
	C779.601807,244.673843 778.880127,245.814667 777.954468,247.049988 
	C777.885315,247.443573 777.770386,247.392395 777.228638,247.252930 
	C774.125488,247.071106 771.564087,247.028748 768.915161,246.602844 
	C765.735229,244.739502 762.657776,243.433151 759.776978,247.090576 
	C759.283508,247.409241 759.098328,247.676147 759.001831,248.004623 
	C758.553406,248.072998 758.104919,248.141388 757.125366,247.842407 
	C755.730713,247.309128 754.867249,247.143188 753.932861,246.620331 
	C751.948914,244.538712 750.201538,243.930832 748.598389,246.988129 
	C747.133240,246.988663 746.067627,246.986633 744.921082,246.611130 
	C742.340576,244.491989 739.946594,243.708267 737.697266,247.012344 
	C736.928894,247.367371 736.461487,247.698029 735.994019,248.028671 
M234.355133,234.927887 
	C234.681335,234.115723 235.007538,233.303558 235.333740,232.491394 
	C234.003143,232.793427 232.672562,233.095474 231.341980,233.397507 
	C231.396530,233.762466 231.451080,234.127426 231.505646,234.492386 
	C232.212860,234.654053 232.920074,234.815720 234.355133,234.927887 
z"/>
<path fill="#9BD2ED" opacity="1.000000" stroke="none" 
	d="
M156.686157,392.939880 
	C156.785233,415.097992 156.964523,437.256042 156.969803,459.414185 
	C156.995377,566.738892 156.966263,674.063599 157.011093,781.388306 
	C157.012329,784.349243 157.629578,787.309937 157.920166,790.698364 
	C148.579239,782.884827 144.608658,772.144409 143.812653,759.432495 
	C144.021545,754.059021 143.768036,749.385376 143.514542,744.711792 
	C143.450027,743.781189 143.385529,742.850586 143.779953,741.359497 
	C144.016968,739.453674 143.795059,738.108337 143.573151,736.763000 
	C143.494522,734.522583 143.415909,732.282227 143.808578,729.397949 
	C144.086975,726.521240 143.894089,724.288513 143.701202,722.055725 
	C143.611557,721.578430 143.521912,721.101135 143.896057,720.110962 
	C144.121002,713.993347 143.882187,708.388611 143.643372,702.783813 
	C143.552689,702.120850 143.462006,701.457886 143.724396,700.354980 
	C143.926682,699.560608 143.775894,699.206238 143.625107,698.851807 
	C143.543503,698.483582 143.461899,698.115356 143.836670,697.246155 
	C144.066452,695.090332 143.839828,693.435486 143.613205,691.780640 
	C143.530746,691.137329 143.448273,690.494019 143.851715,689.262695 
	C144.560532,682.024963 144.861435,675.376160 144.939423,668.724670 
	C144.954697,667.421326 144.107086,666.107971 143.657440,664.799194 
	C143.563858,660.566956 143.470276,656.334717 143.855072,651.394897 
	C144.114960,647.395691 143.896469,644.104187 143.677979,640.812622 
	C143.592438,640.441345 143.506912,640.070007 143.827759,639.263733 
	C144.042847,638.166931 143.851547,637.505066 143.660248,636.843262 
	C143.578995,635.828308 143.497742,634.813416 143.907715,633.383118 
	C145.711044,629.609192 145.645264,626.315308 145.286514,622.655701 
	C144.578476,615.432861 145.113892,608.094238 144.949661,600.807617 
	C144.911987,599.135742 144.123886,597.480835 143.681152,595.818115 
	C143.592209,595.141663 143.503250,594.465149 143.759644,593.346375 
	C143.955994,592.559326 143.806992,592.214539 143.657990,591.869812 
	C143.575394,590.564697 143.492798,589.259583 143.809906,587.406860 
	C144.047333,586.189636 143.885071,585.520020 143.722778,584.850342 
	C143.654724,582.564148 143.586670,580.277893 143.956879,577.317810 
	C144.157059,574.036011 143.918945,571.428040 143.680817,568.820129 
	C143.591187,566.863708 143.501541,564.907227 143.745941,562.437256 
	C143.931549,561.644287 143.783112,561.364746 143.634674,561.085266 
	C143.497604,546.127441 143.238403,531.169495 143.244247,516.211731 
	C143.272263,444.486084 143.371994,372.760437 143.446030,301.034790 
	C143.447556,299.547150 143.446213,298.059509 143.446213,295.873077 
	C148.081772,297.304016 152.266830,298.595886 156.800812,300.067810 
	C157.074112,314.860352 156.998474,329.472839 156.539383,344.554779 
	C155.592941,345.378845 155.029938,345.733490 154.466934,346.088135 
	C155.240845,346.386292 156.014740,346.684418 156.788651,346.982574 
	C156.832367,348.059113 156.876083,349.135651 156.510986,350.610046 
	C155.223831,351.610779 153.757324,352.085022 153.591431,352.843658 
	C153.261276,354.353424 153.661758,356.018982 153.733505,357.621338 
	C154.032501,364.298096 154.392960,370.973907 154.517487,377.654083 
	C154.531937,378.428925 153.217514,379.228485 152.519180,380.016571 
	C153.773651,381.667084 153.688873,383.372223 154.097366,384.949677 
	C154.797958,387.655121 155.806763,390.280731 156.686157,392.939880 
M146.515961,594.412231 
	C146.515961,594.412231 146.584320,594.525085 146.515961,594.412231 
M152.517944,383.416473 
	C152.517944,383.416473 152.580811,383.522736 152.517944,383.416473 
M146.589294,640.516296 
	C146.589294,640.516296 146.474670,640.584045 146.589294,640.516296 
z"/>
<path fill="#95D2F6" opacity="1.000000" stroke="none" 
	d="
M233.998901,226.336609 
	C231.295486,226.274124 228.592056,226.211639 225.022400,226.148239 
	C222.437134,226.200226 220.718079,226.253113 218.548218,226.220703 
	C214.731628,226.139389 211.365891,226.143356 208.000137,226.147339 
	C207.019196,226.022064 206.038269,225.896790 204.423737,225.690582 
	C210.063766,218.398178 217.590210,214.914383 225.801102,213.044189 
	C230.441864,211.987167 235.383713,211.968185 240.190292,211.964706 
	C344.150879,211.889557 448.111481,211.884537 552.072083,211.852707 
	C555.068970,211.851791 558.065918,211.706009 561.755249,212.030930 
	C571.971619,216.909744 581.495667,221.385391 591.019653,225.861038 
	C543.591858,225.960068 496.164062,226.098099 448.736206,226.146866 
	C403.798798,226.193069 358.861359,226.145691 313.025177,226.130249 
	C309.750732,226.182678 307.375000,226.244324 304.999298,226.305969 
	C302.530029,226.258560 300.060730,226.211151 296.782379,226.206238 
	C290.981262,226.281006 285.989227,226.313309 280.997192,226.345612 
	C280.551178,226.280609 280.105133,226.215622 278.933838,226.147430 
	C277.140289,226.201111 276.072021,226.257996 275.003723,226.314865 
	C271.967896,226.257172 268.932037,226.199478 264.987305,226.139862 
	C258.051941,226.200134 252.025528,226.262375 245.999100,226.324600 
	C244.280991,226.269989 242.562866,226.215393 240.000732,226.162552 
	C237.437424,226.221756 235.718170,226.279190 233.998901,226.336609 
z"/>
<path fill="#F7FDFD" opacity="1.000000" stroke="none" 
	d="
M591.350586,225.916931 
	C581.495667,221.385391 571.971619,216.909744 562.208984,212.155334 
	C567.617188,211.847534 573.264038,211.790863 578.910828,211.793732 
	C633.521301,211.821442 688.131958,211.929977 742.742188,211.828506 
	C752.547424,211.810287 761.508240,213.927231 769.804138,220.133041 
	C770.323242,222.484879 770.653625,224.173248 770.521790,225.937988 
	C737.304871,226.029144 704.550171,226.032608 671.795471,226.062286 
	C645.530701,226.086090 619.265930,226.141708 593.001160,226.183197 
	C592.561279,226.113068 592.121338,226.042953 591.350586,225.916931 
z"/>
<path fill="#9AD3EF" opacity="1.000000" stroke="none" 
	d="
M768.608398,694.695923 
	C763.360229,695.089050 758.204224,695.014587 753.048340,694.935486 
	C730.448303,694.588745 707.832642,694.648621 685.252625,693.780396 
	C661.885010,692.881897 638.537537,690.913818 616.564331,681.922363 
	C605.546326,677.413757 594.628113,672.482666 585.992737,663.468384 
	C597.145508,667.697632 607.976196,673.695618 619.576782,676.444519 
	C631.719666,679.321838 644.592651,679.893799 657.163391,680.042114 
	C692.281067,680.456604 727.407410,680.130920 762.530334,680.097656 
	C764.340149,680.095947 766.149902,680.097473 768.700684,680.097473 
	C768.700684,685.025696 768.700684,689.625916 768.608398,694.695923 
z"/>
<path fill="#0B3347" opacity="1.000000" stroke="none" 
	d="
M624.967896,631.062683 
	C635.382324,632.231079 645.521667,634.726501 655.672791,634.775635 
	C725.137329,635.111877 794.604248,634.934814 864.531921,635.006714 
	C865.231323,638.185425 863.106995,638.060974 861.030212,637.995117 
	C850.670532,637.666504 840.311401,637.100037 829.951111,637.078796 
	C821.090637,637.060608 812.230408,637.899414 803.367615,637.952148 
	C780.561829,638.087769 757.754639,637.997498 734.948059,637.997498 
	C721.215393,637.997498 707.481201,638.118652 693.750488,637.955933 
	C684.220032,637.843079 674.696106,637.254150 665.165588,637.039490 
	C658.429016,636.887817 651.637756,637.506775 644.960205,636.859985 
	C638.603821,636.244324 632.354431,634.472595 626.086609,633.080383 
	C625.516968,632.953918 625.156067,631.887695 624.967896,631.062683 
z"/>
<path fill="#193E51" opacity="1.000000" stroke="none" 
	d="
M593.065308,226.562653 
	C619.265930,226.141708 645.530701,226.086090 671.795471,226.062286 
	C704.550171,226.032608 737.304871,226.029144 770.855957,226.023071 
	C772.104980,226.099274 772.557556,226.166794 773.010193,226.234314 
	C771.923889,227.154266 770.837646,228.074203 769.373230,228.998734 
	C763.966309,229.329224 758.937500,229.655121 753.175049,229.693085 
	C749.625916,229.270096 746.810547,229.135040 743.995117,229.000000 
	C695.733032,228.997147 647.470947,229.019180 599.209106,228.904785 
	C597.181030,228.899979 595.155884,227.625214 593.065308,226.562653 
z"/>
<path fill="#E6F3F6" opacity="1.000000" stroke="none" 
	d="
M870.635376,752.084473 
	C873.844849,784.848511 849.994141,814.590027 832.794678,818.478027 
	C851.985535,800.506348 861.610901,777.730957 867.103516,752.238159 
	C868.626160,751.932312 869.630798,752.008423 870.635376,752.084473 
z"/>
<path fill="#325566" opacity="1.000000" stroke="none" 
	d="
M602.039001,462.846344 
	C612.401245,457.088684 624.124268,454.219971 636.072021,454.027893 
	C675.038696,453.401428 714.016663,453.486420 752.990173,453.276520 
	C757.982422,453.249634 762.973999,453.097412 768.411987,452.885010 
	C767.136658,453.473480 765.416870,454.792023 763.693359,454.797028 
	C724.219238,454.912170 684.744324,454.776459 645.270691,454.956268 
	C635.049194,455.002838 624.858582,455.732849 615.165161,459.903381 
	C611.226135,461.598145 606.706909,461.944183 602.039001,462.846344 
z"/>
<path fill="#99CAE2" opacity="1.000000" stroke="none" 
	d="
M818.411072,695.768433 
	C812.990967,695.843750 807.717163,695.457336 802.020874,695.133667 
	C801.598328,690.295471 801.598328,685.394531 801.598328,680.262817 
	C807.322754,680.262817 812.666321,680.262817 818.557434,680.262817 
	C818.557434,685.473511 818.557434,690.390076 818.411072,695.768433 
z"/>
<path fill="#325566" opacity="1.000000" stroke="none" 
	d="
M541.736389,610.149658 
	C535.104492,598.061829 533.003174,584.453491 532.433960,570.627197 
	C531.647400,551.520935 535.481445,533.289124 544.604736,516.014771 
	C543.844971,519.583069 543.302063,523.585388 541.685181,527.092651 
	C534.864014,541.889160 532.915100,557.652588 534.211548,573.457397 
	C535.146179,584.852173 538.959167,596.010315 541.474060,607.277161 
	C541.653015,608.078796 541.714233,608.906616 541.736389,610.149658 
z"/>
<path fill="#325566" opacity="1.000000" stroke="none" 
	d="
M769.211243,438.696442 
	C768.858521,418.593964 768.780884,398.181732 768.811157,377.380127 
	C769.242981,378.224030 769.844910,379.456360 769.849060,380.690704 
	C769.911011,399.115173 769.899170,417.539917 769.878174,435.964569 
	C769.877258,436.772095 769.622742,437.579315 769.211243,438.696442 
z"/>
<path fill="#325566" opacity="1.000000" stroke="none" 
	d="
M549.992920,507.634277 
	C556.931396,494.401886 567.535217,484.260590 579.684082,475.155640 
	C579.685608,475.975159 579.601257,477.106293 578.996521,477.743256 
	C569.485291,487.760162 559.907043,497.713470 549.992920,507.634277 
z"/>
<path fill="#033559" opacity="1.000000" stroke="none" 
	d="
M207.999939,226.552673 
	C211.365891,226.143356 214.731628,226.139389 218.549026,226.590012 
	C219.000641,228.029739 219.000626,229.014877 219.000610,230.000000 
	C217.103714,233.806534 213.339920,233.671738 210.249878,233.123550 
	C209.169235,232.931839 208.731201,229.117844 207.999939,226.552673 
z"/>
<path fill="#A6E5FE" opacity="1.000000" stroke="none" 
	d="
M143.579803,596.259033 
	C144.123886,597.480835 144.911987,599.135742 144.949661,600.807617 
	C145.113892,608.094238 144.578476,615.432861 145.286514,622.655701 
	C145.645264,626.315308 145.711044,629.609192 144.034210,633.018250 
	C143.605789,620.945801 143.542114,608.822876 143.579803,596.259033 
z"/>
<path fill="#325566" opacity="1.000000" stroke="none" 
	d="
M768.393066,370.683716 
	C765.182800,360.498535 757.903625,355.201263 747.187622,353.492554 
	C754.096252,352.192261 759.714355,354.640076 764.252319,360.272675 
	C766.705872,363.318115 770.311218,365.642761 768.393066,370.683716 
z"/>
<path fill="#99CAE2" opacity="1.000000" stroke="none" 
	d="
M870.736877,751.660339 
	C869.630798,752.008423 868.626160,751.932312 867.243896,751.882874 
	C867.372620,747.496338 867.878967,743.083130 868.385315,738.669861 
	C868.699280,738.619751 869.013245,738.569641 869.327209,738.519531 
	C869.830933,742.758423 870.334656,746.997314 870.736877,751.660339 
z"/>
<path fill="#A6E5FE" opacity="1.000000" stroke="none" 
	d="
M143.496933,665.185486 
	C144.107086,666.107971 144.954697,667.421326 144.939423,668.724670 
	C144.861435,675.376160 144.560532,682.024963 143.982162,688.959229 
	C143.529953,681.353088 143.433182,673.462402 143.496933,665.185486 
z"/>
<path fill="#083347" opacity="1.000000" stroke="none" 
	d="
M798.935791,250.113525 
	C792.370483,249.509140 786.083069,248.852295 779.547974,247.877350 
	C783.608826,247.698044 787.917297,247.836823 793.031250,247.983551 
	C795.223633,247.994949 796.610596,247.998398 797.997559,248.001831 
	C798.402954,248.688248 798.808350,249.374664 798.935791,250.113525 
z"/>
<path fill="#033559" opacity="1.000000" stroke="none" 
	d="
M798.366699,247.955658 
	C796.610596,247.998398 795.223633,247.994949 793.420776,247.985321 
	C792.548096,246.510010 792.091370,245.040924 791.530579,243.237289 
	C794.626770,243.642120 797.580505,244.028336 801.682922,244.564728 
	C800.332642,246.097168 799.534180,247.003326 798.366699,247.955658 
z"/>
<path fill="#063554" opacity="1.000000" stroke="none" 
	d="
M191.100037,244.262558 
	C194.361710,244.000473 197.723083,244.000458 201.542114,244.373932 
	C202.000458,245.493210 202.001144,246.238968 201.561401,246.988449 
	C198.080658,246.660217 195.040329,246.328293 192.000000,245.996368 
	C191.733261,245.505783 191.466507,245.015198 191.100037,244.262558 
z"/>
<path fill="#A6E5FE" opacity="1.000000" stroke="none" 
	d="
M143.395798,745.118591 
	C143.768036,749.385376 144.021545,754.059021 143.910645,759.007568 
	C143.456497,754.696777 143.366776,750.111084 143.395798,745.118591 
z"/>
<path fill="#A6E5FE" opacity="1.000000" stroke="none" 
	d="
M143.539276,703.233643 
	C143.882187,708.388611 144.121002,713.993347 144.039246,719.768127 
	C143.624176,714.519897 143.529678,709.101624 143.539276,703.233643 
z"/>
<path fill="#A6E5FE" opacity="1.000000" stroke="none" 
	d="
M866.671631,353.351654 
	C867.682129,352.990753 868.643433,352.998291 869.892822,352.978271 
	C869.947998,355.600189 869.715210,358.249725 869.482422,360.899231 
	C869.007202,360.921814 868.531982,360.944366 868.056763,360.966949 
	C867.578674,358.551331 867.100586,356.135742 866.671631,353.351654 
z"/>
<path fill="#083347" opacity="1.000000" stroke="none" 
	d="
M191.580658,245.997650 
	C195.040329,246.328293 198.080658,246.660217 201.562134,247.231659 
	C202.003281,247.471146 201.999115,247.957138 201.999115,247.957138 
	C196.637390,247.990143 191.275650,248.023132 185.456635,247.949493 
	C187.053314,247.228226 189.107315,246.613586 191.580658,245.997650 
z"/>
<path fill="#0B3347" opacity="1.000000" stroke="none" 
	d="
M867.079346,635.432251 
	C871.419006,634.041931 875.824951,633.006653 880.616943,631.972107 
	C880.568726,632.818298 880.232422,634.322693 879.684570,634.404114 
	C875.528259,635.021851 871.330505,635.361145 867.079346,635.432251 
z"/>
<path fill="#E6F3F6" opacity="1.000000" stroke="none" 
	d="
M773.372559,226.157959 
	C772.557556,226.166794 772.104980,226.099274 771.318176,225.946686 
	C770.653625,224.173248 770.323242,222.484879 769.988770,220.422729 
	C772.267151,221.708084 774.549683,223.367203 777.828918,225.750809 
	C775.690002,225.923630 774.712463,226.002609 773.372559,226.157959 
z"/>
<path fill="#043456" opacity="1.000000" stroke="none" 
	d="
M219.369659,229.995483 
	C219.000626,229.014877 219.000641,228.029739 218.999847,226.675293 
	C220.718079,226.253113 222.437134,226.200226 224.578766,226.232269 
	C224.832504,227.094482 224.663635,227.871780 224.246765,228.824844 
	C222.578751,229.330734 221.158737,229.660858 219.369659,229.995483 
z"/>
<path fill="#325566" opacity="1.000000" stroke="none" 
	d="
M586.390564,471.019928 
	C589.133301,469.069550 592.251282,467.134186 595.722412,465.184082 
	C592.972290,467.124512 589.869080,469.079742 586.390564,471.019928 
z"/>
<path fill="#325566" opacity="1.000000" stroke="none" 
	d="
M580.923828,474.786133 
	C582.133118,473.518127 583.729553,472.300354 585.663574,471.046936 
	C584.437744,472.286346 582.874390,473.561371 580.923828,474.786133 
z"/>
<path fill="#A6E5FE" opacity="1.000000" stroke="none" 
	d="
M143.581528,569.211792 
	C143.918945,571.428040 144.157059,574.036011 144.066681,576.901489 
	C143.652863,574.640564 143.567551,572.122070 143.581528,569.211792 
z"/>
<path fill="#325566" opacity="1.000000" stroke="none" 
	d="
M544.916992,616.816162 
	C543.881958,615.396362 542.880859,613.578430 541.876831,611.403442 
	C542.899475,612.837036 543.925171,614.627502 544.916992,616.816162 
z"/>
<path fill="#A6E5FE" opacity="1.000000" stroke="none" 
	d="
M143.579361,722.432495 
	C143.894089,724.288513 144.086975,726.521240 143.954315,729.000000 
	C143.571686,727.100403 143.514603,724.954834 143.579361,722.432495 
z"/>
<path fill="#A6E5FE" opacity="1.000000" stroke="none" 
	d="
M143.574524,641.278076 
	C143.896469,644.104187 144.114960,647.395691 143.987473,650.961792 
	C143.584671,648.072021 143.527863,644.907837 143.574524,641.278076 
z"/>
<path fill="#325566" opacity="1.000000" stroke="none" 
	d="
M596.609985,465.125610 
	C597.595093,464.393219 598.956116,463.672394 600.656494,462.971497 
	C599.659302,463.706665 598.322693,464.421906 596.609985,465.125610 
z"/>
<path fill="#325566" opacity="1.000000" stroke="none" 
	d="
M547.359497,511.939362 
	C547.698547,510.687866 548.379822,509.368774 549.316589,507.861267 
	C548.948669,509.072510 548.325256,510.472137 547.359497,511.939362 
z"/>
<path fill="#A6E5FE" opacity="1.000000" stroke="none" 
	d="
M864.985229,345.480530 
	C865.533752,346.582123 866.035583,348.039154 866.315552,349.685822 
	C865.708679,348.528961 865.323608,347.182465 864.985229,345.480530 
z"/>
<path fill="#A6E5FE" opacity="1.000000" stroke="none" 
	d="
M143.509872,692.227478 
	C143.839828,693.435486 144.066452,695.090332 143.963135,696.985352 
	C143.557632,695.708496 143.482086,694.191406 143.509872,692.227478 
z"/>
<path fill="#A6E5FE" opacity="1.000000" stroke="none" 
	d="
M143.584915,585.058228 
	C143.885071,585.520020 144.047333,586.189636 143.928833,587.029419 
	C143.581070,586.555054 143.514053,585.910583 143.584915,585.058228 
z"/>
<path fill="#A6E5FE" opacity="1.000000" stroke="none" 
	d="
M143.471512,737.206116 
	C143.795059,738.108337 144.016968,739.453674 143.907028,741.029663 
	C143.506744,740.056641 143.438309,738.852966 143.471512,737.206116 
z"/>
<path fill="#A6E5FE" opacity="1.000000" stroke="none" 
	d="
M143.562927,637.226685 
	C143.851547,637.505066 144.042847,638.166931 143.950745,638.998047 
	C143.600113,638.648193 143.532837,638.129150 143.562927,637.226685 
z"/>
<path fill="#A6E5FE" opacity="1.000000" stroke="none" 
	d="
M870.894775,348.623169 
	C870.695251,348.398895 870.601440,347.882416 870.696472,347.236786 
	C870.923706,347.515411 870.962097,347.923187 870.894775,348.623169 
z"/>
<path fill="#F3F9FA" opacity="1.000000" stroke="none" 
	d="
M145.058105,213.054901 
	C145.148590,213.013016 145.215912,212.952728 145.134979,212.947296 
	C144.986740,213.002121 145.034927,213.036484 145.058105,213.054901 
z"/>
<path fill="#325566" opacity="1.000000" stroke="none" 
	d="
M769.111633,449.908325 
	C768.886108,449.826782 768.824219,449.664124 768.854492,449.257294 
	C769.056213,449.284485 769.165771,449.555847 769.111633,449.908325 
z"/>
<path fill="#A6E5FE" opacity="1.000000" stroke="none" 
	d="
M143.564484,561.351807 
	C143.783112,561.364746 143.931549,561.644287 143.871704,562.033447 
	C143.607025,561.968201 143.550644,561.793274 143.564484,561.351807 
z"/>
<path fill="#325566" opacity="1.000000" stroke="none" 
	d="
M545.995544,513.747559 
	C545.975952,513.760071 545.827637,513.570251 545.927734,513.609375 
	C546.027771,513.648499 546.015137,513.735107 545.995544,513.747559 
z"/>
<path fill="#A6E5FE" opacity="1.000000" stroke="none" 
	d="
M143.543594,699.179321 
	C143.775894,699.206238 143.926682,699.560608 143.850739,700.038513 
	C143.570007,699.943542 143.516037,699.725159 143.543594,699.179321 
z"/>
<path fill="#A6E5FE" opacity="1.000000" stroke="none" 
	d="
M143.579910,592.187622 
	C143.806992,592.214539 143.955994,592.559326 143.882812,593.022217 
	C143.607712,592.928772 143.554764,592.717102 143.579910,592.187622 
z"/>
<path fill="#073555" opacity="1.000000" stroke="none" 
	d="
M168.996902,381.696533 
	C167.004425,371.293213 170.454636,362.464844 175.595123,354.335052 
	C187.693588,335.201141 205.105621,325.101196 227.935944,324.885254 
	C236.766388,324.801727 245.598587,324.838898 254.429535,324.894104 
	C262.159454,324.942413 268.482910,331.022583 268.792542,338.589355 
	C269.092987,345.931152 263.190277,351.777710 254.994171,352.045135 
	C245.514679,352.354523 235.989548,352.033966 226.557434,352.841644 
	C213.319519,353.975281 198.640518,364.794312 196.840912,380.753235 
	C196.142593,386.945862 190.711090,391.311859 184.487061,392.031525 
	C177.394119,392.851654 172.731354,389.843323 168.996902,381.696533 
z"/>
<path fill="#063556" opacity="1.000000" stroke="none" 
	d="
M648.000183,352.073425 
	C633.192566,352.072449 618.884949,352.103241 604.577576,352.053894 
	C595.821472,352.023712 590.437012,346.913025 590.481140,338.831879 
	C590.525024,330.794373 596.074280,325.020691 604.339661,324.989014 
	C632.122742,324.882507 659.906677,324.885559 687.689819,324.976685 
	C695.165955,325.001190 701.267212,331.411804 701.320374,338.785461 
	C701.373413,346.146667 695.793091,351.836914 687.928406,351.945496 
	C674.787598,352.126923 661.643127,352.043396 648.000183,352.073425 
z"/>
<path fill="#043456" opacity="1.000000" stroke="none" 
	d="
M691.001831,779.898560 
	C689.890198,780.599243 688.778564,781.299927 687.010742,781.665039 
	C684.538635,781.215393 682.722778,781.004333 680.906677,781.002136 
	C654.250305,780.969788 627.593933,780.965271 600.655701,780.675293 
	C597.844421,780.332947 595.314941,780.269531 592.785522,780.206055 
	C592.785522,780.206055 592.970947,780.043091 592.911743,779.768921 
	C592.052673,778.269470 591.283142,777.023010 590.447388,775.822693 
	C587.413879,771.465759 588.220581,766.742004 590.505432,762.790100 
	C591.812500,760.529480 595.271423,758.256348 597.831360,758.174316 
	C619.372742,757.485107 640.929993,757.263306 662.483643,757.006714 
	C665.753418,756.967712 669.107666,758.040344 672.286072,757.603638 
	C678.111511,756.803223 683.711121,756.307861 689.296936,758.830750 
	C690.757446,759.490356 692.712952,759.053833 694.441101,759.120728 
	C694.441101,759.120789 694.730042,759.269043 694.591187,759.764160 
	C695.904480,763.508423 697.356567,766.757507 698.808655,770.006653 
	C698.780457,770.576965 698.752319,771.147217 698.176025,771.925049 
	C696.740479,773.635254 695.853027,775.137817 694.965637,776.640442 
	C694.965637,776.640442 694.637451,776.979675 694.062012,777.038330 
	C692.658325,778.030884 691.830139,778.964722 691.001831,779.898560 
z"/>
<path fill="#083754" opacity="1.000000" stroke="none" 
	d="
M198.368195,735.335327 
	C202.013062,745.315979 208.594269,751.518982 218.620193,753.942566 
	C219.748352,754.215332 220.860687,754.572937 221.955246,754.961853 
	C228.856537,757.414185 232.678024,763.051208 232.022186,769.774658 
	C231.384964,776.307190 226.232437,781.961487 219.068832,782.050354 
	C213.420609,782.120483 207.326019,781.257996 202.163269,779.074890 
	C184.158585,771.461365 172.743652,757.809021 168.490707,738.623230 
	C166.603058,730.107788 169.516510,723.063721 175.573517,719.373535 
	C183.578659,714.496460 193.144516,717.883057 196.172531,726.781494 
	C197.075760,729.435791 197.542496,732.238647 198.368195,735.335327 
z"/>
<path fill="#083755" opacity="1.000000" stroke="none" 
	d="
M197.808167,475.114288 
	C197.815933,486.408661 197.836090,497.219757 197.828049,508.030853 
	C197.821396,516.978638 191.872772,523.470215 183.323486,523.902710 
	C175.415207,524.302734 168.799347,518.031433 168.581512,509.037445 
	C168.271515,496.239563 168.382553,483.424835 168.614975,470.622772 
	C168.777466,461.673279 175.309906,455.631836 183.969009,455.853546 
	C191.843002,456.055145 197.664169,462.476074 197.815735,471.138062 
	C197.836105,472.301971 197.811920,473.466675 197.808167,475.114288 
z"/>
<path fill="#083656" opacity="1.000000" stroke="none" 
	d="
M385.027893,781.830078 
	C377.879517,780.124329 373.919708,774.556641 374.639923,767.224121 
	C375.325104,760.248291 380.426819,755.354492 387.572998,755.286072 
	C403.716309,755.131470 419.861725,755.085510 436.005676,755.148743 
	C443.840302,755.179443 449.202393,760.016846 449.959381,767.296326 
	C450.695831,774.378296 446.325836,780.100708 438.033508,781.671448 
	C420.493896,781.230652 403.641022,781.123901 386.787964,781.067444 
	C386.202148,781.065491 385.614624,781.564575 385.027893,781.830078 
z"/>
<path fill="#073655" opacity="1.000000" stroke="none" 
	d="
M197.225143,646.874023 
	C193.511566,655.159912 187.358551,658.642700 179.720184,657.107971 
	C172.837357,655.724976 168.700241,650.128235 168.597244,641.501099 
	C168.458206,629.856567 168.401382,618.206116 168.645432,606.565247 
	C168.712830,603.349854 169.374115,599.853699 170.815552,597.022278 
	C173.676193,591.402832 180.191452,588.657959 185.974747,589.824829 
	C192.332779,591.107666 197.548981,596.482544 197.679611,603.591980 
	C197.942184,617.881897 197.495850,632.184753 197.225143,646.874023 
z"/>
<path fill="#083755" opacity="1.000000" stroke="none" 
	d="
M335.936035,768.140869 
	C335.013977,777.608215 330.261169,782.094055 321.379089,782.146362 
	C309.730377,782.215027 298.080994,782.252747 286.432220,782.212463 
	C277.377228,782.181152 272.050537,777.152710 271.960693,768.736023 
	C271.872314,760.455688 277.328522,755.245483 286.424316,755.164185 
	C297.739746,755.063049 309.056488,755.113159 320.372681,755.099915 
	C329.798859,755.088806 333.876221,758.399658 335.936035,768.140869 
z"/>
<path fill="#073555" opacity="1.000000" stroke="none" 
	d="
M353.741455,351.994141 
	C341.806000,351.994995 330.338837,352.031403 318.871918,351.999786 
	C310.202393,351.975861 304.835846,346.902740 304.751587,338.763062 
	C304.668030,330.690826 310.461334,325.050140 319.058655,324.993530 
	C330.691498,324.916931 342.325043,324.916382 353.958221,324.931183 
	C362.497192,324.942017 368.727448,330.661896 368.725494,338.398926 
	C368.723480,346.528473 363.164337,351.737518 353.741455,351.994141 
z"/>
<path fill="#083754" opacity="1.000000" stroke="none" 
	d="
M540.208984,757.592712 
	C545.625183,762.273743 547.372070,767.479675 545.532654,772.815796 
	C543.479675,778.771545 538.614624,782.133667 531.752380,782.164551 
	C521.441589,782.210999 511.128479,782.289307 500.820007,782.125305 
	C492.735138,781.996765 487.324524,776.434937 487.267059,768.624512 
	C487.211334,761.049133 492.992554,755.282043 500.947632,755.195251 
	C511.091614,755.084534 521.241089,754.960144 531.379578,755.202637 
	C534.239868,755.270996 537.070007,756.602844 540.208984,757.592712 
z"/>
<path fill="#083754" opacity="1.000000" stroke="none" 
	d="
M490.798309,334.159180 
	C493.607880,327.594421 498.316833,324.810303 505.072510,324.920898 
	C514.895630,325.081696 524.723511,324.920380 534.548950,324.977783 
	C542.218567,325.022614 548.075745,330.964020 548.114136,338.596039 
	C548.151428,346.011322 542.589966,351.791901 534.859070,351.928711 
	C524.703186,352.108429 514.541626,352.057953 504.383331,351.988831 
	C493.667389,351.915924 488.545654,345.320251 490.798309,334.159180 
z"/>
<path fill="#083754" opacity="1.000000" stroke="none" 
	d="
M456.609711,329.485168 
	C460.374207,334.394257 461.363037,339.490479 458.688721,344.704315 
	C455.926392,350.089783 451.151245,352.218262 445.088684,352.068817 
	C437.283630,351.876404 429.469360,352.096313 421.660248,352.018433 
	C413.779358,351.939880 408.739746,346.757477 408.640442,338.816101 
	C408.541260,330.886780 413.936890,325.083679 421.725128,324.974762 
	C429.533356,324.865540 437.381348,324.498840 445.138336,325.137787 
	C448.967224,325.453156 452.630402,327.780060 456.609711,329.485168 
z"/>
<path fill="#204457" opacity="1.000000" stroke="none" 
	d="
M694.276794,758.840088 
	C692.712952,759.053833 690.757446,759.490356 689.296936,758.830750 
	C683.711121,756.307861 678.111511,756.803223 672.286072,757.603638 
	C669.107666,758.040344 665.753418,756.967712 662.483643,757.006714 
	C640.929993,757.263306 619.372742,757.485107 597.831360,758.174316 
	C595.271423,758.256348 591.812500,760.529480 590.505432,762.790100 
	C588.220581,766.742004 587.413879,771.465759 590.447388,775.822693 
	C591.283142,777.023010 592.052673,778.269470 592.832275,779.863281 
	C587.168213,776.326111 585.040405,770.926575 586.745056,764.837036 
	C588.361572,759.062317 593.129944,755.248901 599.756653,755.217224 
	C628.352905,755.080505 656.950867,755.017273 685.545715,755.240234 
	C688.409790,755.262573 691.257263,757.402344 694.276794,758.840088 
z"/>
<path fill="#99CAE2" opacity="1.000000" stroke="none" 
	d="
M156.765167,392.533203 
	C155.806763,390.280731 154.797958,387.655121 154.097366,384.949677 
	C153.688873,383.372223 153.773651,381.667084 152.519180,380.016571 
	C153.217514,379.228485 154.531937,378.428925 154.517487,377.654083 
	C154.392960,370.973907 154.032501,364.298096 153.733505,357.621338 
	C153.661758,356.018982 153.261276,354.353424 153.591431,352.843658 
	C153.757324,352.085022 155.223831,351.610779 156.455460,351.011414 
	C156.616287,360.263550 156.330994,369.511597 156.271500,378.761078 
	C156.242859,383.214813 156.639908,387.671265 156.765167,392.533203 
z"/>
<path fill="#0A2B3F" opacity="1.000000" stroke="none" 
	d="
M600.937561,780.954224 
	C627.593933,780.965271 654.250305,780.969788 680.906677,781.002136 
	C682.722778,781.004333 684.538635,781.215393 686.665771,781.602295 
	C678.530334,781.980774 670.083801,782.170166 661.637207,782.175293 
	C640.742432,782.188049 619.847717,782.116516 598.692505,781.734619 
	C599.267273,781.245056 600.102417,781.099670 600.937561,780.954224 
z"/>
<path fill="#0A2B3F" opacity="1.000000" stroke="none" 
	d="
M385.478821,781.961548 
	C385.614624,781.564575 386.202148,781.065491 386.787964,781.067444 
	C403.641022,781.123901 420.493896,781.230652 437.658325,781.600342 
	C420.623138,781.945190 403.276428,782.019043 385.478821,781.961548 
z"/>
<path fill="#204457" opacity="1.000000" stroke="none" 
	d="
M698.910767,769.613281 
	C697.356567,766.757507 695.904480,763.508423 694.673523,759.904053 
	C696.267395,762.772522 697.640137,765.996216 698.910767,769.613281 
z"/>
<path fill="#204457" opacity="1.000000" stroke="none" 
	d="
M600.655701,780.675293 
	C600.102417,781.099670 599.267273,781.245056 598.233582,781.644836 
	C596.427551,781.525208 594.820068,781.151245 592.999023,780.491699 
	C595.314941,780.269531 597.844421,780.332947 600.655701,780.675293 
z"/>
<path fill="#204457" opacity="1.000000" stroke="none" 
	d="
M695.274536,776.553589 
	C695.853027,775.137817 696.740479,773.635254 697.980225,772.139893 
	C697.416138,773.586975 696.499756,775.026855 695.274536,776.553589 
z"/>
<path fill="#204457" opacity="1.000000" stroke="none" 
	d="
M691.331909,779.914490 
	C691.830139,778.964722 692.658325,778.030884 693.832031,777.091431 
	C693.339050,778.033997 692.500488,778.982178 691.331909,779.914490 
z"/>
<path fill="#99CAE2" opacity="1.000000" stroke="none" 
	d="
M156.846375,346.656799 
	C156.014740,346.684418 155.240845,346.386292 154.466934,346.088135 
	C155.029938,345.733490 155.592941,345.378845 156.476685,345.020508 
	C156.832993,345.454926 156.868546,345.892975 156.846375,346.656799 
z"/>
<path fill="#063554" opacity="1.000000" stroke="none" 
	d="
M638.406311,607.947510 
	C615.768372,605.342957 598.919861,584.773254 599.312988,564.581360 
	C599.777893,540.704590 619.257629,521.201843 643.171631,521.167725 
	C667.504822,521.132996 687.168091,540.291321 687.180298,564.046204 
	C687.192566,587.953064 667.385559,607.825073 643.351013,608.012756 
	C641.853333,608.024475 640.355225,607.986511 638.406311,607.947510 
z"/>
<path fill="#083347" opacity="1.000000" stroke="none" 
	d="
M464.003143,246.988434 
	C468.906769,246.990662 473.810364,246.994980 478.713989,246.994766 
	C516.495483,246.993118 554.276917,246.990585 592.981445,246.990631 
	C596.938782,246.986237 599.973022,246.979492 603.007263,246.972748 
	C628.357483,246.976135 653.707703,246.979523 679.984863,246.986008 
	C684.276184,246.985184 687.640503,246.981247 691.004883,246.977310 
	C692.716553,246.981033 694.428162,246.984756 697.036743,246.991089 
	C707.956299,246.993195 717.978882,246.992661 728.001465,246.992142 
	C728.868652,247.157867 729.735901,247.323593 730.805542,247.757263 
	C709.032104,248.100494 687.056213,248.242111 665.080322,248.240417 
	C513.360657,248.228775 361.641052,248.187256 209.459259,247.814453 
	C208.997116,247.473587 208.999680,246.984756 209.437180,246.989197 
	C211.916382,246.990952 213.958099,246.988281 216.334045,246.987656 
	C217.113968,246.984650 217.559662,246.979599 218.005341,246.974533 
	C258.023499,246.980362 298.041656,246.986191 338.928894,246.994110 
	C340.866333,246.994003 341.934662,246.991806 343.003021,246.989624 
	C378.356171,246.990479 413.709351,246.991333 449.994629,246.994080 
	C455.285583,246.993454 459.644348,246.990952 464.003143,246.988434 
z"/>
<path fill="#053555" opacity="1.000000" stroke="none" 
	d="
M217.996368,246.608597 
	C217.559662,246.979599 217.113968,246.984650 216.253891,246.614182 
	C213.341888,244.491913 210.949570,243.710297 208.999680,246.984756 
	C208.999680,246.984756 208.997116,247.473587 208.999313,247.717987 
	C206.953262,248.028183 204.905014,248.093964 202.427948,248.058441 
	C201.999115,247.957138 202.003281,247.471146 202.002563,247.227936 
	C202.001144,246.238968 202.000458,245.493210 201.999573,244.374329 
	C205.203583,243.572449 208.461182,242.595612 211.593872,242.900833 
	C213.812515,243.116989 215.862259,245.066757 217.996368,246.608597 
z"/>
<path fill="#083347" opacity="1.000000" stroke="none" 
	d="
M736.452881,248.134033 
	C736.461487,247.698029 736.928894,247.367371 738.135010,247.016205 
	C740.916443,246.991989 742.959290,246.988297 745.002075,246.984604 
	C746.067627,246.986633 747.133240,246.988663 749.015503,246.992889 
	C751.222717,246.989151 752.613220,246.983200 754.003723,246.977264 
	C754.867249,247.143188 755.730713,247.309128 756.796631,247.740631 
	C750.303284,248.083923 743.607483,248.161652 736.452881,248.134033 
z"/>
<path fill="#083347" opacity="1.000000" stroke="none" 
	d="
M759.460999,248.101639 
	C759.098328,247.676147 759.283508,247.409241 760.227295,247.097961 
	C763.598999,246.990143 766.300842,246.988266 769.002686,246.986389 
	C771.564087,247.028748 774.125488,247.071106 777.168213,247.235626 
	C771.739685,247.638092 765.829956,247.918381 759.460999,248.101639 
z"/>
<path fill="#043456" opacity="1.000000" stroke="none" 
	d="
M245.999664,226.742752 
	C252.025528,226.262375 258.051941,226.200134 264.539551,226.224182 
	C264.996582,226.476776 265.014954,226.647263 264.984985,226.808777 
	C263.442383,235.127502 263.447174,235.110306 254.851868,232.492416 
	C253.934357,232.212952 252.760727,231.914093 251.961929,232.244049 
	C246.522736,234.490768 245.501526,231.763794 245.999664,226.742752 
z"/>
<path fill="#043456" opacity="1.000000" stroke="none" 
	d="
M280.998718,226.746307 
	C285.989227,226.313309 290.981262,226.281006 296.395264,226.312119 
	C297.668793,230.579910 295.565979,232.077057 291.696350,232.003922 
	C289.731506,231.966766 287.754639,231.867661 285.802185,232.027969 
	C282.156555,232.327271 280.601440,230.741394 280.998718,226.746307 
z"/>
<path fill="#053555" opacity="1.000000" stroke="none" 
	d="
M727.910156,246.600525 
	C717.978882,246.992661 707.956299,246.993195 697.464600,246.987946 
	C697.781982,245.995605 698.593567,244.133865 699.351379,244.155487 
	C708.653809,244.421066 717.948669,244.957550 727.243347,245.463394 
	C727.448120,245.474533 727.627625,245.949997 727.910156,246.600525 
z"/>
<path fill="#063554" opacity="1.000000" stroke="none" 
	d="
M463.935791,246.620911 
	C459.644348,246.990952 455.285583,246.993454 450.461853,246.991745 
	C453.390717,243.456604 459.966461,243.108597 463.935791,246.620911 
z"/>
<path fill="#053555" opacity="1.000000" stroke="none" 
	d="
M690.986755,246.567780 
	C687.640503,246.981247 684.276184,246.985184 680.453125,246.980240 
	C680.787720,245.988388 681.781860,244.061966 682.340454,244.180893 
	C685.217773,244.793549 689.017822,241.768433 690.986755,246.567780 
z"/>
<path fill="#063554" opacity="1.000000" stroke="none" 
	d="
M602.988525,246.564941 
	C599.973022,246.979492 596.938782,246.986237 593.449829,246.987045 
	C593.784668,245.995132 594.747314,244.075729 595.333923,244.184479 
	C597.899658,244.660110 601.401428,241.999329 602.988525,246.564941 
z"/>
<path fill="#043456" opacity="1.000000" stroke="none" 
	d="
M305.021729,226.690094 
	C307.375000,226.244324 309.750732,226.182678 312.563354,226.212051 
	C311.330353,229.854858 308.090668,230.168869 305.021729,226.690094 
z"/>
<path fill="#053555" opacity="1.000000" stroke="none" 
	d="
M768.915161,246.602844 
	C766.300842,246.988266 763.598999,246.990143 760.446899,246.984650 
	C762.657776,243.433151 765.735229,244.739502 768.915161,246.602844 
z"/>
<path fill="#043456" opacity="1.000000" stroke="none" 
	d="
M234.019638,226.707367 
	C235.718170,226.279190 237.437424,226.221756 239.579071,226.251373 
	C238.343185,229.823196 236.889557,230.003571 234.019638,226.707367 
z"/>
<path fill="#053555" opacity="1.000000" stroke="none" 
	d="
M744.081055,229.382828 
	C746.810547,229.135040 749.625916,229.270096 752.726990,229.690796 
	C750.064087,229.906189 747.115479,229.835922 744.081055,229.382828 
z"/>
<path fill="#053555" opacity="1.000000" stroke="none" 
	d="
M744.921082,246.611130 
	C742.959290,246.988297 740.916443,246.991989 738.435913,246.991821 
	C739.946594,243.708267 742.340576,244.491989 744.921082,246.611130 
z"/>
<path fill="#053555" opacity="1.000000" stroke="none" 
	d="
M233.991211,234.952637 
	C232.920074,234.815720 232.212860,234.654053 231.505646,234.492386 
	C231.451080,234.127426 231.396530,233.762466 231.341980,233.397507 
	C232.672562,233.095474 234.003143,232.793427 235.333740,232.491394 
	C235.007538,233.303558 234.681335,234.115723 233.991211,234.952637 
z"/>
<path fill="#053555" opacity="1.000000" stroke="none" 
	d="
M753.932861,246.620331 
	C752.613220,246.983200 751.222717,246.989151 749.415039,246.990326 
	C750.201538,243.930832 751.948914,244.538712 753.932861,246.620331 
z"/>
<path fill="#043456" opacity="1.000000" stroke="none" 
	d="
M275.085144,226.626404 
	C276.072021,226.257996 277.140289,226.201111 278.602539,226.229294 
	C277.719849,226.522217 276.443237,226.730072 275.085144,226.626404 
z"/>
<path fill="#063554" opacity="1.000000" stroke="none" 
	d="
M342.939972,246.644928 
	C341.934662,246.991806 340.866333,246.994003 339.397339,246.992081 
	C339.844910,244.246857 341.194244,244.333237 342.939972,246.644928 
z"/>
<path fill="#A6E5FE" opacity="1.000000" stroke="none" 
	d="
M146.550140,594.468628 
	C146.584320,594.525085 146.515961,594.412231 146.550140,594.468628 
z"/>
<path fill="#99CAE2" opacity="1.000000" stroke="none" 
	d="
M152.549377,383.469604 
	C152.580811,383.522736 152.517944,383.416473 152.549377,383.469604 
z"/>
<path fill="#A6E5FE" opacity="1.000000" stroke="none" 
	d="
M146.531982,640.550171 
	C146.474670,640.584045 146.589294,640.516296 146.531982,640.550171 
z"/>
<path fill="#063554" opacity="1.000000" stroke="none" 
	d="
M209.437180,246.989197 
	C210.949570,243.710297 213.341888,244.491913 215.919647,246.612137 
	C213.958099,246.988281 211.916382,246.990952 209.437180,246.989197 
z"/>
</svg>